<?xml version="1.0" standalone="no"?>
<!DOCTYPE svg PUBLIC "-//W3C//DTD SVG 20010904//EN"
 "http://www.w3.org/TR/2001/REC-SVG-20010904/DTD/svg10.dtd">
<svg version="1.0" xmlns="http://www.w3.org/2000/svg"
 width="260.000000pt" height="260.000000pt" viewBox="0 0 260.000000 260.000000"
 preserveAspectRatio="xMidYMid meet">
<metadata>
Created by potrace 1.11, written by Peter Selinger 2001-2013
</metadata>
<g transform="translate(0.000000,260.000000) scale(0.100000,-0.100000)"
fill="#000000" stroke="none">
<path d="M1179 2476 c-2 -2 -24 -6 -49 -10 -107 -14 -242 -56 -350 -111 -140
-70 -313 -210 -395 -320 -16 -22 -32 -42 -35 -45 -20 -18 -95 -154 -134 -240
-24 -56 -64 -203 -74 -277 -13 -88 -13 -252 -1 -328 17 -104 24 -134 50 -214
124 -375 441 -665 837 -767 123 -32 342 -40 470 -18 473 83 836 426 953 899
27 107 33 318 14 443 -74 476 -444 865 -921 968 -68 14 -354 30 -365 20z"/>
</g>
</svg>
