<svg height="78" viewBox="0 0 97 78" width="97" xmlns="http://www.w3.org/2000/svg" xmlns:xlink="http://www.w3.org/1999/xlink"><mask id="a" fill="#fff"><path d="m0 77.94h96.96v-77.265h-96.96z" fill="#fff" fill-rule="evenodd"/></mask><path d="m13.936 7.341 9.658 4.268-17.744 5.615zm77.21 9.883-17.744-5.615 9.658-4.268zm-20.87 15.439 20.049-8.629-37.196 44.582zm-64.485-12.274 20.54-6.5v15.34zm20.929 12.274 17.147 35.953-37.195-44.582zm.554-22.708-8.538-3.772 12.311-1.986zm2.773 1.241 4.204-6.416 9.514 12.611zm36.902 0-13.718 6.195 9.514-12.611zm2.773-1.241-3.772-5.758 12.31 1.986zm.943 3.934 20.54 6.5-20.54 8.84zm-18.675 7.355 15.675-7.079v14.916zm-1.992 2.358 17.179 8.589-17.179 36.021zm-3 0v44.61l-17.179-36.021zm-17.667-9.437 15.675 7.079-15.675 7.837zm67.514 6.63c.027-.059.057-.114.076-.176.03-.093.041-.191.051-.29.007-.063.021-.123.02-.186 0-.015.005-.029.004-.043-.005-.101-.035-.195-.06-.29-.012-.048-.012-.097-.029-.144-.056-.154-.136-.295-.237-.422-.005-.006-.006-.013-.011-.019l-12-14.667c-.231-.283-.561-.473-.922-.531l-20.667-3.333c-.548-.089-1.102.134-1.436.577l-13.136 17.413-13.136-17.413c-.334-.443-.888-.666-1.436-.577l-20.667 3.333c-.36.058-.69.248-.922.531l-12 14.667c-.004.006-.006.013-.01.019-.101.127-.181.268-.237.422-.017.047-.018.097-.03.145-.024.095-.055.188-.06.289-.001.014.005.028.005.042-.002.064.013.125.019.188.011.099.022.196.051.289.019.062.049.118.076.177.043.091.089.177.149.259.019.025.026.056.046.081l47 56.333c.036.043.083.07.123.107.055.054.109.108.173.153s.133.077.203.111c.049.024.09.059.142.078.021.008.043.006.064.013.074.023.149.032.225.044.075.011.148.025.222.025.075 0 .148-.014.222-.025.077-.012.152-.021.225-.044.021-.007.043-.005.064-.013.052-.019.094-.054.143-.078.069-.034.138-.066.202-.111s.118-.099.174-.153c.039-.037.086-.064.122-.107l47-56.333c.021-.025.028-.056.047-.081.059-.082.106-.168.148-.26z" fill="#131a23" fill-rule="evenodd" mask="url(#a)"/></svg>