<svg width="38" height="31" viewBox="0 0 38 31" fill="none" xmlns="http://www.w3.org/2000/svg">
<path fill-rule="evenodd" clip-rule="evenodd" d="M5.48812 2.6497L9.27395 4.36612L2.31849 6.62425L5.48812 2.6497ZM35.4398 6.62425L28.4843 4.36612L32.2701 2.6497L35.4398 6.62425ZM27.2534 12.2763L35.1085 8.94274L20.5352 26.1658L27.2534 12.2763ZM2.31849 7.8256L10.2676 5.2994V11.2612L2.31849 7.8256ZM10.5047 12.2763L17.2231 26.1658L2.6497 8.94274L10.5047 12.2763ZM10.5025 3.64334L7.28668 2.12452L11.9237 1.32485L10.5025 3.64334ZM11.5924 4.18369L13.2165 1.65606L16.8918 6.62425L11.5924 4.18369ZM26.1658 4.18369L20.8664 6.62425L24.5418 1.65606L26.1658 4.18369ZM27.2554 3.64334L25.8346 1.32485L30.4716 2.12452L27.2554 3.64334ZM27.4906 5.2994L35.4398 7.8256L27.4906 11.2612V5.2994ZM20.204 8.12883L26.1658 5.2994V11.2612L20.204 8.12883ZM19.5415 8.94274L26.1658 12.2588L19.5415 26.1658V8.94274ZM18.2167 8.94274V26.1658L11.5924 12.2588L18.2167 8.94274ZM11.2612 5.2994L17.2231 8.12883L11.2612 11.2612V5.2994ZM37.6994 7.84262C37.7099 7.81963 37.7216 7.79819 37.729 7.77402C37.7407 7.73777 37.745 7.69957 37.7488 7.66098C37.7516 7.63643 37.757 7.61304 37.7566 7.58848C37.7566 7.58264 37.7586 7.57718 37.7582 7.57172C37.7562 7.53235 37.7446 7.49571 37.7348 7.45869C37.7302 7.43998 37.7302 7.42088 37.7235 7.40256C37.7017 7.34253 37.6706 7.28757 37.6313 7.23807C37.6293 7.23573 37.629 7.233 37.627 7.23066L32.9557 1.51366C32.8658 1.40335 32.7373 1.32929 32.5968 1.30669L24.5516 0.00752934C24.3383 -0.0271616 24.1227 0.0597607 23.9926 0.232436L18.8791 7.01979L13.7656 0.232436C13.6356 0.0597607 13.4199 -0.0271616 13.2066 0.00752934L5.16144 1.30669C5.02131 1.32929 4.89284 1.40335 4.80253 1.51366L0.13123 7.23066C0.129672 7.233 0.128894 7.23573 0.127337 7.23807C0.08802 7.28757 0.056878 7.34253 0.0350785 7.40256C0.0284609 7.42088 0.0280716 7.44037 0.0234003 7.45907C0.0140577 7.4961 0.00199014 7.53235 4.37647e-05 7.57172C-0.000345511 7.57718 0.00199014 7.58264 0.00199014 7.58809C0.00121159 7.61304 0.00705072 7.63682 0.00938637 7.66137C0.0136684 7.69996 0.0179504 7.73777 0.0292394 7.77402C0.0366356 7.79819 0.0483139 7.82002 0.0588243 7.84301C0.0755632 7.87848 0.0934698 7.91201 0.116826 7.94397C0.124223 7.95371 0.126948 7.9658 0.134733 7.97554L18.4307 29.9334C18.4447 29.9501 18.463 29.9607 18.4786 29.9751C18.5 29.9961 18.521 30.0172 18.5459 30.0347C18.5708 30.0523 18.5977 30.0647 18.6249 30.078C18.644 30.0873 18.66 30.101 18.6802 30.1084C18.6884 30.1115 18.6969 30.1107 18.7051 30.1135C18.7339 30.1224 18.7631 30.1259 18.7927 30.1306C18.8219 30.1349 18.8503 30.1404 18.8791 30.1404C18.9083 30.1404 18.9367 30.1349 18.9655 30.1306C18.9955 30.1259 19.0247 30.1224 19.0531 30.1135C19.0613 30.1107 19.0699 30.1115 19.078 30.1084C19.0983 30.101 19.1146 30.0873 19.1337 30.078C19.1606 30.0647 19.1874 30.0523 19.2123 30.0347C19.2372 30.0172 19.2583 29.9961 19.2801 29.9751C19.2953 29.9607 19.3135 29.9501 19.3276 29.9334L37.6235 7.97554C37.6317 7.9658 37.6344 7.95371 37.6418 7.94397C37.6648 7.91201 37.6831 7.87848 37.6994 7.84262Z" fill="white"/>
</svg>
