<svg width="230" height="200" viewBox="0 0 230 200" fill="none" xmlns="http://www.w3.org/2000/svg">
<rect x="24.1754" y="61.0323" width="55.7695" height="22.3078" rx="1.59341" fill="#FAFAFA" stroke="#161935" stroke-width="3.18683"/>
<rect x="150.054" y="61.0323" width="55.7695" height="22.3078" rx="1.59341" fill="#FAFAFA" stroke="#161935" stroke-width="3.18683"/>
<rect x="150.054" y="92.9005" width="55.7695" height="22.3078" rx="1.59341" fill="#FAFAFA" stroke="#161935" stroke-width="3.18683"/>
<rect x="49.5" y="89.9926" width="55.7695" height="22.3078" rx="1.59341" transform="rotate(11.1892 49.5 89.9926)" fill="#C9C9C9" stroke="#161935" stroke-width="3.18683"/>
<rect x="88.7106" y="61.0323" width="55.7695" height="22.3078" rx="1.59341" fill="#FAFAFA" stroke="#161935" stroke-width="3.18683"/>
<rect x="24.1754" y="127.956" width="55.7695" height="22.3078" rx="1.59341" fill="#FAFAFA" stroke="#161935" stroke-width="3.18683"/>
<path d="M94.4468 113.746C94.6522 113.655 94.867 113.615 95.0817 113.615C95.4769 113.615 95.8691 113.761 96.1709 114.044L106.656 123.866C107.113 124.296 107.278 124.952 107.073 125.547C106.87 126.141 106.335 126.558 105.71 126.614L102.887 126.873L104.879 131.23C105.056 131.619 105.069 132.061 104.916 132.459C104.767 132.857 104.459 133.178 104.07 133.349L102.152 134.192C101.947 134.283 101.729 134.329 101.511 134.329C101.312 134.329 101.116 134.292 100.929 134.217C100.534 134.062 100.217 133.757 100.049 133.364L98.1534 128.97L96.1927 130.813C95.8909 131.093 95.4987 131.242 95.1004 131.242C94.8887 131.242 94.674 131.198 94.4686 131.111C93.8897 130.859 93.5101 130.287 93.5101 129.652L93.4883 115.208C93.4883 114.573 93.8648 113.998 94.4468 113.746Z" fill="white" stroke="#101421" stroke-width="2.39012"/>
</svg>
