<svg width="280" height="244" viewBox="0 0 280 244" fill="none" xmlns="http://www.w3.org/2000/svg">
<rect width="280" height="244" rx="3" fill="#FFF6ED"/>
<rect x="26" y="70" width="70" height="28" rx="2" fill="#FAFAFA" stroke="#161935" stroke-width="4"/>
<rect x="184" y="70" width="70" height="28" rx="2" fill="#FAFAFA" stroke="#161935" stroke-width="4"/>
<rect x="184" y="110" width="70" height="28" rx="2" fill="#FAFAFA" stroke="#161935" stroke-width="4"/>
<rect x="57.7848" y="106.35" width="70" height="28" rx="2" transform="rotate(11.1892 57.7848 106.35)" fill="#C9C9C9" stroke="#161935" stroke-width="4"/>
<rect x="107" y="70" width="70" height="28" rx="2" fill="#FAFAFA" stroke="#161935" stroke-width="4"/>
<rect x="26" y="154" width="70" height="28" rx="2" fill="#FAFAFA" stroke="#161935" stroke-width="4"/>
<path d="M114.203 136.164C114.461 136.051 114.73 136 115 136C115.496 136 115.988 136.184 116.367 136.539L129.527 148.867C130.102 149.406 130.309 150.23 130.051 150.977C129.797 151.723 129.125 152.246 128.34 152.316L124.797 152.641L127.297 158.109C127.52 158.598 127.535 159.152 127.344 159.652C127.156 160.152 126.77 160.555 126.281 160.77L123.875 161.828C123.617 161.941 123.344 162 123.07 162C122.82 162 122.574 161.953 122.34 161.859C121.844 161.664 121.445 161.281 121.234 160.789L118.855 155.273L116.395 157.586C116.016 157.938 115.523 158.125 115.023 158.125C114.758 158.125 114.488 158.07 114.23 157.961C113.504 157.645 113.027 156.926 113.027 156.129L113 138C113 137.203 113.473 136.48 114.203 136.164Z" fill="white" stroke="#101421" stroke-width="3"/>
</svg>
