<svg width="600" height="424" viewBox="0 0 600 424" fill="none" xmlns="http://www.w3.org/2000/svg">
<rect x="126.876" y="142.649" width="202.677" height="117.396" rx="2.5" transform="rotate(-17.1528 126.876 142.649)" fill="white" stroke="#161935" stroke-width="3"/>
<rect x="295.622" y="195.602" width="202.677" height="117.396" rx="2.5" transform="rotate(9.63688 295.622 195.602)" fill="white" stroke="#161935" stroke-width="3"/>
<path d="M189.871 185.84C189.316 184.244 189.054 182.717 189.085 181.259C189.122 179.788 189.4 178.508 189.921 177.417C190.447 176.314 191.142 175.369 192.006 174.583C192.87 173.797 193.856 173.211 194.963 172.827C196.964 172.131 198.881 172.142 200.712 172.86C202.543 173.578 203.958 174.926 204.956 176.906L201.354 178.855C201.066 178.356 200.755 177.921 200.42 177.552C200.094 177.179 199.719 176.86 199.296 176.593C198.872 176.327 198.399 176.171 197.877 176.125C197.354 176.079 196.807 176.156 196.235 176.354C194.925 176.81 194.017 177.766 193.511 179.224C193.001 180.673 193.102 182.421 193.814 184.469C194.247 185.714 194.751 186.764 195.327 187.619C195.913 188.47 196.521 189.09 197.153 189.481C197.785 189.871 198.42 190.105 199.057 190.184C199.691 190.253 200.326 190.177 200.963 189.956C202.189 189.529 203.033 188.848 203.494 187.913C203.96 186.965 203.972 185.854 203.53 184.581L199.85 185.861L198.715 182.595L206.048 180.046L206.966 182.689C207.842 185.207 207.824 187.447 206.913 189.407C206.008 191.355 204.435 192.719 202.194 193.498C200.967 193.924 199.771 194.112 198.606 194.062C197.447 194 196.327 193.692 195.245 193.137C194.16 192.573 193.149 191.674 192.213 190.438C191.286 189.199 190.505 187.666 189.871 185.84ZM212.782 189.337L207.564 174.324L211.051 173.112L211.599 174.69L211.654 174.671C211.745 174.008 212.012 173.409 212.456 172.872C212.9 172.335 213.449 171.953 214.104 171.725C214.556 171.568 215.042 171.508 215.561 171.545L216.235 175.312C215.728 175.312 215.314 175.368 214.991 175.48C213.275 176.077 212.815 177.519 213.61 179.806L216.476 188.053L212.782 189.337ZM219.012 178.751C218.663 177.745 218.463 176.77 218.414 175.826C218.365 174.881 218.45 174.025 218.669 173.256C218.884 172.478 219.21 171.765 219.647 171.117C220.083 170.469 220.61 169.919 221.228 169.466C221.852 169.001 222.538 168.639 223.285 168.379C224.226 168.052 225.177 167.918 226.138 167.977C227.1 168.036 228.017 168.28 228.89 168.711C229.77 169.129 230.576 169.784 231.31 170.677C232.041 171.56 232.623 172.624 233.056 173.869C233.492 175.124 233.707 176.321 233.699 177.461C233.689 178.591 233.481 179.599 233.076 180.485C232.676 181.357 232.108 182.118 231.372 182.767C230.645 183.412 229.788 183.907 228.801 184.25C227.814 184.593 226.831 184.738 225.851 184.686C224.881 184.63 223.964 184.386 223.099 183.952C222.232 183.509 221.444 182.847 220.735 181.967C220.022 181.077 219.448 180.005 219.012 178.751ZM222.637 177.491C223.16 178.994 223.859 180.038 224.734 180.623C225.615 181.196 226.586 181.298 227.647 180.929C228.699 180.564 229.385 179.875 229.706 178.864C230.035 177.85 229.944 176.605 229.431 175.129C228.921 173.663 228.218 172.636 227.321 172.048C226.421 171.451 225.459 171.33 224.435 171.686C223.402 172.045 222.715 172.734 222.376 173.751C222.034 174.759 222.121 176.006 222.637 177.491ZM232.304 165.726L235.915 164.47L241.38 173.814L241.463 173.785L241.325 162.59L244.66 161.431L251.236 170.358L251.291 170.338L250.083 159.546L253.626 158.315L255.232 174.583L251.607 175.843L244.424 166.243L244.369 166.262L244.412 178.343L240.842 179.584L232.304 165.726ZM255.967 160.99L254.885 157.877L257.292 157.04L256.008 153.346L259.495 152.134L260.779 155.828L264.57 154.511L265.652 157.624L261.917 158.922L264.071 165.121C264.35 165.924 264.675 166.441 265.045 166.675C265.422 166.895 266.016 166.864 266.828 166.582L268.045 166.159L269.276 169.701L267.727 170.24C266.684 170.602 265.78 170.797 265.015 170.826C264.255 170.842 263.597 170.688 263.04 170.365C262.48 170.032 262.006 169.576 261.619 168.997C261.241 168.416 260.89 167.659 260.566 166.727L258.291 160.182L255.967 160.99ZM272.611 168.542L265.421 147.857L269.116 146.573L271.587 153.685L271.643 153.665C271.765 153.065 272.108 152.46 272.671 151.85C273.241 151.228 273.899 150.788 274.646 150.528C276.242 149.973 277.687 150.024 278.98 150.681C280.27 151.329 281.203 152.483 281.78 154.143L285.257 164.147L281.577 165.426L278.384 156.238C278.092 155.399 277.629 154.795 276.994 154.426C276.365 154.045 275.608 154.009 274.723 154.316C273.874 154.611 273.313 155.08 273.04 155.723C272.764 156.357 272.759 157.056 273.025 157.822L276.305 167.258L272.611 168.542Z" fill="#161935"/>
<path d="M332.229 269.717L336.196 249.089L340.18 249.855L336.214 270.483L332.229 269.717ZM341.24 263.35C341.487 262.065 341.905 260.927 342.493 259.936C343.082 258.945 343.757 258.175 344.519 257.626C345.292 257.068 346.107 256.683 346.964 256.47C347.83 256.258 348.689 256.235 349.543 256.399C350.07 256.5 350.551 256.662 350.986 256.885C351.42 257.108 351.763 257.343 352.014 257.59C352.265 257.837 352.477 258.077 352.651 258.309C352.827 258.532 352.95 258.72 353.02 258.872L353.111 259.099L353.168 259.11L354.59 251.716L358.417 252.452L354.282 273.957L350.7 273.268L350.987 271.772L350.915 271.759C350.868 271.799 350.801 271.861 350.716 271.944C350.632 272.017 350.444 272.14 350.152 272.313C349.87 272.487 349.569 272.633 349.248 272.751C348.927 272.868 348.509 272.947 347.994 272.987C347.487 273.039 346.965 273.013 346.428 272.91C344.366 272.513 342.865 271.449 341.925 269.717C340.987 267.975 340.759 265.853 341.24 263.35ZM345.067 264.086C344.764 265.658 344.846 266.912 345.313 267.847C345.78 268.782 346.569 269.357 347.682 269.571C348.717 269.77 349.595 269.6 350.315 269.063C351.045 268.527 351.501 267.784 351.683 266.835L352.234 263.972C352.414 263.032 352.265 262.178 351.786 261.41C351.317 260.643 350.565 260.161 349.529 259.961C348.407 259.746 347.456 259.985 346.676 260.681C345.907 261.368 345.371 262.503 345.067 264.086ZM358.876 266.741C359.354 264.257 360.418 262.393 362.069 261.149C363.721 259.906 365.587 259.484 367.668 259.884C369.739 260.282 371.306 261.364 372.369 263.13C373.432 264.895 373.724 267.02 373.247 269.504L373.025 270.655L362.539 268.638C362.366 269.848 362.515 270.832 362.986 271.588C363.468 272.337 364.232 272.813 365.278 273.014C365.748 273.104 366.197 273.121 366.625 273.064C367.065 272.999 367.469 272.863 367.838 272.655C368.208 272.438 368.511 272.233 368.747 272.04C368.992 271.848 369.268 271.603 369.574 271.304L371.796 274.177C369.758 276.192 367.387 276.939 364.682 276.419C362.506 276.001 360.87 274.911 359.777 273.149C358.695 271.38 358.395 269.244 358.876 266.741ZM363.089 265.776L369.865 267.079C369.97 266.065 369.774 265.221 369.277 264.549C368.791 263.869 368.04 263.431 367.023 263.236C366.084 263.055 365.253 263.213 364.53 263.711C363.82 264.201 363.339 264.889 363.089 265.776ZM374.823 277.907L377.824 262.299L381.507 263.007L381.219 264.503L381.277 264.514C381.804 264.049 382.477 263.701 383.297 263.471C384.117 263.241 384.944 263.206 385.779 263.366C387.514 263.7 388.773 264.474 389.554 265.688C390.334 266.902 390.549 268.425 390.197 270.257L388.23 280.485L384.404 279.749L386.188 270.471C386.394 269.397 386.338 268.55 386.019 267.932C385.712 267.306 385.06 266.897 384.062 266.706C383.132 266.527 382.347 266.654 381.707 267.088C381.078 267.514 380.676 268.183 380.501 269.094L378.664 278.645L374.823 277.907ZM392.968 268.567L393.59 265.331L396.093 265.812L396.832 261.971L400.457 262.668L399.718 266.509L403.66 267.267L403.037 270.503L399.153 269.757L397.914 276.201C397.754 277.035 397.776 277.646 397.98 278.033C398.195 278.413 398.725 278.684 399.569 278.846L400.834 279.089L400.126 282.772L398.515 282.462C397.432 282.254 396.551 281.97 395.874 281.611C395.209 281.245 394.716 280.782 394.396 280.223C394.078 279.655 393.896 279.023 393.851 278.328C393.815 277.635 393.89 276.805 394.076 275.836L395.384 269.032L392.968 268.567ZM403.593 283.439L406.594 267.831L410.435 268.569L407.434 284.177L403.593 283.439ZM407.031 265.558L407.728 261.933L411.569 262.672L410.872 266.297L407.031 265.558ZM412.301 272.285L412.923 269.048L415.426 269.529L416.165 265.688L419.79 266.385L419.051 270.226L422.993 270.984L422.371 274.221L418.487 273.474L417.248 279.918C417.087 280.753 417.109 281.363 417.313 281.751C417.528 282.13 418.058 282.401 418.902 282.563L420.168 282.807L419.46 286.489L417.849 286.18C416.765 285.971 415.885 285.688 415.208 285.329C414.542 284.962 414.05 284.499 413.729 283.941C413.411 283.372 413.229 282.741 413.184 282.046C413.148 281.353 413.223 280.522 413.41 279.553L414.718 272.749L412.301 272.285ZM424.014 271.18L427.913 271.93L429.907 283.277L429.965 283.288L436.04 273.493L439.924 274.239L426.672 294.753L422.86 294.02L427.403 287.226L424.014 271.18Z" fill="#161935"/>
<rect width="600" height="424" fill="#FFF6ED"/>
<rect x="123.876" y="147.649" width="202.677" height="117.396" rx="2.5" transform="rotate(-17.1528 123.876 147.649)" fill="white" stroke="#161935" stroke-width="3"/>
<rect x="292.622" y="200.602" width="202.677" height="117.396" rx="2.5" transform="rotate(9.63688 292.622 200.602)" fill="white" stroke="#161935" stroke-width="3"/>
<path d="M186.871 190.84C186.316 189.244 186.054 187.717 186.085 186.259C186.122 184.788 186.4 183.508 186.921 182.417C187.447 181.314 188.142 180.369 189.006 179.583C189.87 178.797 190.856 178.211 191.963 177.827C193.964 177.131 195.881 177.142 197.712 177.86C199.543 178.578 200.958 179.926 201.956 181.906L198.354 183.855C198.066 183.356 197.755 182.921 197.42 182.552C197.094 182.179 196.719 181.86 196.296 181.593C195.872 181.327 195.399 181.171 194.877 181.125C194.354 181.079 193.807 181.156 193.235 181.354C191.925 181.81 191.017 182.766 190.511 184.224C190.001 185.673 190.102 187.421 190.814 189.469C191.247 190.714 191.751 191.764 192.327 192.619C192.913 193.47 193.521 194.09 194.153 194.481C194.785 194.871 195.42 195.105 196.057 195.184C196.691 195.253 197.326 195.177 197.963 194.956C199.189 194.529 200.033 193.848 200.494 192.913C200.96 191.965 200.972 190.854 200.53 189.581L196.85 190.861L195.715 187.595L203.048 185.046L203.966 187.689C204.842 190.207 204.824 192.447 203.913 194.407C203.008 196.355 201.435 197.719 199.194 198.498C197.967 198.924 196.771 199.112 195.606 199.062C194.447 199 193.327 198.692 192.245 198.137C191.16 197.573 190.149 196.674 189.213 195.438C188.286 194.199 187.505 192.666 186.871 190.84ZM209.782 194.337L204.564 179.324L208.051 178.112L208.599 179.69L208.654 179.671C208.745 179.008 209.012 178.409 209.456 177.872C209.9 177.335 210.449 176.953 211.104 176.725C211.556 176.568 212.042 176.508 212.561 176.545L213.235 180.312C212.728 180.312 212.314 180.368 211.991 180.48C210.275 181.077 209.815 182.519 210.61 184.806L213.476 193.053L209.782 194.337ZM216.012 183.751C215.663 182.745 215.463 181.77 215.414 180.826C215.365 179.881 215.45 179.025 215.669 178.256C215.884 177.478 216.21 176.765 216.647 176.117C217.083 175.469 217.61 174.919 218.228 174.466C218.852 174.001 219.538 173.639 220.285 173.379C221.226 173.052 222.177 172.918 223.138 172.977C224.1 173.036 225.017 173.28 225.89 173.711C226.77 174.129 227.576 174.784 228.31 175.677C229.041 176.56 229.623 177.624 230.056 178.869C230.492 180.124 230.707 181.321 230.699 182.461C230.689 183.591 230.481 184.599 230.076 185.485C229.676 186.357 229.108 187.118 228.372 187.767C227.645 188.412 226.788 188.907 225.801 189.25C224.814 189.593 223.831 189.738 222.851 189.686C221.881 189.63 220.964 189.386 220.099 188.952C219.232 188.509 218.444 187.847 217.735 186.967C217.022 186.077 216.448 185.005 216.012 183.751ZM219.637 182.491C220.16 183.994 220.859 185.038 221.734 185.623C222.615 186.196 223.586 186.298 224.647 185.929C225.699 185.564 226.385 184.875 226.706 183.864C227.035 182.85 226.944 181.605 226.431 180.129C225.921 178.663 225.218 177.636 224.321 177.048C223.421 176.451 222.459 176.33 221.435 176.686C220.402 177.045 219.715 177.734 219.376 178.751C219.034 179.759 219.121 181.006 219.637 182.491ZM229.304 170.726L232.915 169.47L238.38 178.814L238.463 178.785L238.325 167.59L241.66 166.431L248.236 175.358L248.291 175.338L247.083 164.546L250.626 163.315L252.232 179.583L248.607 180.843L241.424 171.243L241.369 171.262L241.412 183.343L237.842 184.584L229.304 170.726ZM252.967 165.99L251.885 162.877L254.292 162.04L253.008 158.346L256.495 157.134L257.779 160.828L261.57 159.511L262.652 162.624L258.917 163.922L261.071 170.121C261.35 170.924 261.675 171.441 262.045 171.675C262.422 171.895 263.016 171.864 263.828 171.582L265.045 171.159L266.276 174.701L264.727 175.24C263.684 175.602 262.78 175.797 262.015 175.826C261.255 175.842 260.597 175.688 260.04 175.365C259.48 175.032 259.006 174.576 258.619 173.997C258.241 173.416 257.89 172.659 257.566 171.727L255.291 165.182L252.967 165.99ZM269.611 173.542L262.421 152.857L266.116 151.573L268.587 158.685L268.643 158.665C268.765 158.065 269.108 157.46 269.671 156.85C270.241 156.228 270.899 155.788 271.646 155.528C273.242 154.973 274.687 155.024 275.98 155.681C277.27 156.329 278.203 157.483 278.78 159.143L282.257 169.147L278.577 170.426L275.384 161.238C275.092 160.399 274.629 159.795 273.994 159.426C273.365 159.045 272.608 159.009 271.723 159.316C270.874 159.611 270.313 160.08 270.04 160.723C269.764 161.357 269.759 162.056 270.025 162.822L273.305 172.258L269.611 173.542Z" fill="#161935"/>
<path d="M329.229 274.717L333.196 254.089L337.18 254.855L333.214 275.483L329.229 274.717ZM338.24 268.35C338.487 267.065 338.905 265.927 339.493 264.936C340.082 263.945 340.757 263.175 341.519 262.626C342.292 262.068 343.107 261.683 343.964 261.47C344.83 261.258 345.689 261.235 346.543 261.399C347.07 261.5 347.551 261.662 347.986 261.885C348.42 262.108 348.763 262.343 349.014 262.59C349.265 262.837 349.477 263.077 349.651 263.309C349.827 263.532 349.95 263.72 350.02 263.872L350.111 264.099L350.168 264.11L351.59 256.716L355.417 257.452L351.282 278.957L347.7 278.268L347.987 276.772L347.915 276.759C347.868 276.799 347.801 276.861 347.716 276.944C347.632 277.017 347.444 277.14 347.152 277.313C346.87 277.487 346.569 277.633 346.248 277.751C345.927 277.868 345.509 277.947 344.994 277.987C344.487 278.039 343.965 278.013 343.428 277.91C341.366 277.513 339.865 276.449 338.925 274.717C337.987 272.975 337.759 270.853 338.24 268.35ZM342.067 269.086C341.764 270.658 341.846 271.912 342.313 272.847C342.78 273.782 343.569 274.357 344.682 274.571C345.717 274.77 346.595 274.6 347.315 274.063C348.045 273.527 348.501 272.784 348.683 271.835L349.234 268.972C349.414 268.032 349.265 267.178 348.786 266.41C348.317 265.643 347.565 265.161 346.529 264.961C345.407 264.746 344.456 264.985 343.676 265.681C342.907 266.368 342.371 267.503 342.067 269.086ZM355.876 271.741C356.354 269.257 357.418 267.393 359.069 266.149C360.721 264.906 362.587 264.484 364.668 264.884C366.739 265.282 368.306 266.364 369.369 268.13C370.432 269.895 370.724 272.02 370.247 274.504L370.025 275.655L359.539 273.638C359.366 274.848 359.515 275.832 359.986 276.588C360.468 277.337 361.232 277.813 362.278 278.014C362.748 278.104 363.197 278.121 363.625 278.064C364.065 277.999 364.469 277.863 364.838 277.655C365.208 277.438 365.511 277.233 365.747 277.04C365.992 276.848 366.268 276.603 366.574 276.304L368.796 279.177C366.758 281.192 364.387 281.939 361.682 281.419C359.506 281.001 357.87 279.911 356.777 278.149C355.695 276.38 355.395 274.244 355.876 271.741ZM360.089 270.776L366.865 272.079C366.97 271.065 366.774 270.221 366.277 269.549C365.791 268.869 365.04 268.431 364.023 268.236C363.084 268.055 362.253 268.213 361.53 268.711C360.82 269.201 360.339 269.889 360.089 270.776ZM371.823 282.907L374.824 267.299L378.507 268.007L378.219 269.503L378.277 269.514C378.804 269.049 379.477 268.701 380.297 268.471C381.117 268.241 381.944 268.206 382.779 268.366C384.514 268.7 385.773 269.474 386.554 270.688C387.334 271.902 387.549 273.425 387.197 275.257L385.23 285.485L381.404 284.749L383.188 275.471C383.394 274.397 383.338 273.55 383.019 272.932C382.712 272.306 382.06 271.897 381.062 271.706C380.132 271.527 379.347 271.654 378.707 272.088C378.078 272.514 377.676 273.183 377.501 274.094L375.664 283.645L371.823 282.907ZM389.968 273.567L390.59 270.331L393.093 270.812L393.832 266.971L397.457 267.668L396.718 271.509L400.66 272.267L400.037 275.503L396.153 274.757L394.914 281.201C394.754 282.035 394.776 282.646 394.98 283.033C395.195 283.413 395.725 283.684 396.569 283.846L397.834 284.089L397.126 287.772L395.515 287.462C394.432 287.254 393.551 286.97 392.874 286.611C392.209 286.245 391.716 285.782 391.396 285.223C391.078 284.655 390.896 284.023 390.851 283.328C390.815 282.635 390.89 281.805 391.076 280.836L392.384 274.032L389.968 273.567ZM400.593 288.439L403.594 272.831L407.435 273.569L404.434 289.177L400.593 288.439ZM404.031 270.558L404.728 266.933L408.569 267.672L407.872 271.297L404.031 270.558ZM409.301 277.285L409.923 274.048L412.426 274.529L413.165 270.688L416.79 271.385L416.051 275.226L419.993 275.984L419.371 279.221L415.487 278.474L414.248 284.918C414.087 285.753 414.109 286.363 414.313 286.751C414.528 287.13 415.058 287.401 415.902 287.563L417.168 287.807L416.46 291.489L414.849 291.18C413.765 290.971 412.885 290.688 412.208 290.329C411.542 289.962 411.05 289.499 410.729 288.941C410.411 288.372 410.229 287.741 410.184 287.046C410.148 286.353 410.223 285.522 410.41 284.553L411.718 277.749L409.301 277.285ZM421.014 276.18L424.913 276.93L426.907 288.277L426.965 288.288L433.04 278.493L436.924 279.239L423.672 299.753L419.86 299.02L424.403 292.226L421.014 276.18Z" fill="#161935"/>
</svg>
