<svg width="600" height="424" viewBox="0 0 600 424" fill="none" xmlns="http://www.w3.org/2000/svg">
<rect width="600" height="424" fill="#FFF6ED"/>
<path d="M157.746 147.039C157.47 143.439 157.686 139.804 157.686 136.183H157.782C157.782 134.402 157.782 132.621 157.782 130.84C157.782 128.016 157.971 125.175 157.713 122.376C157.421 119.191 157.214 116.017 157.233 112.824C157.235 112.395 157.21 111.966 157.157 111.539C156.829 108.864 156.336 106.199 156.188 103.515C155.992 99.6467 155.158 95.8366 153.72 92.2379C153.494 91.6741 153.533 90.9766 153.02 90.5631C150.689 88.6828 148.85 86.2898 146.152 84.7583C141.299 82.0013 136.642 82.776 132.057 85.0877C129.419 86.418 127.149 88.3671 125.017 90.4349C123.735 91.6806 122.672 93.1321 121.873 94.7288C120.114 98.2026 119.114 101.93 118.094 105.646C117.707 107.057 117.733 108.574 117.451 110.019C116.417 115.39 115.933 120.851 116.007 126.32C116.036 129.19 116.02 132.084 116.461 134.953C116.686 136.47 116.753 138.007 116.662 139.538C116.564 141.306 117.051 142.952 117.419 144.624C117.629 145.58 118.317 146.013 119.142 145.95C120.078 145.88 120.776 145.301 120.94 144.386C121.014 143.972 121.068 143.505 120.961 143.107C120.564 141.607 120.499 140.095 120.467 138.549C120.387 134.69 120.134 130.83 120.037 126.963C119.951 123.579 120.238 120.209 120.565 116.84C120.815 114.276 121.165 111.719 121.565 109.173C122.118 105.649 123.351 102.324 124.542 98.9718C126.269 94.1058 129.535 90.7119 134.067 88.516C136.222 87.4711 138.64 86.724 141.064 87.1486C145.386 87.9122 148.355 90.5948 150.058 94.5345C150.889 96.4299 151.34 98.499 151.553 100.592C152.142 106.381 152.971 112.154 153.222 117.984C153.378 121.6 153.764 125.199 153.72 128.831C153.644 134.971 153.382 141.109 153.801 147.255C154.026 150.563 153.894 153.882 153.904 157.198C153.91 158.058 154.037 158.914 154.282 159.739C154.567 160.715 155.642 161.312 156.634 161.118C157.572 160.937 157.932 160.263 157.978 159.38C158.036 158.705 158.059 158.029 158.048 157.352C157.87 153.917 158.005 150.486 157.746 147.039Z" fill="#454543"/>
<path d="M140.277 118.586C139.685 118.631 139.27 118.95 138.787 119.222C136.741 120.377 134.974 121.081 133.054 118.418C132.512 117.666 131.741 117.576 130.994 117.371C130.079 117.118 129.697 117.911 129.212 118.418C128.707 118.946 128.493 119.659 128.935 120.274C130.644 122.65 132.718 124.464 136.388 124.362C138.187 124.424 140.088 123.497 141.83 122.157C142.46 121.671 142.747 120.523 142.471 119.838C142.103 118.919 141.328 118.505 140.277 118.586Z" fill="#454543"/>
<path d="M142.036 104.307C140.955 104.298 139.929 105.379 139.873 106.581C139.825 107.658 140.615 108.373 141.888 108.393C143.41 108.421 144.215 107.76 144.232 106.478C144.249 105.196 143.36 104.307 142.036 104.307Z" fill="#454543"/>
<path d="M130.633 110.115C131.925 110.139 132.786 109.368 132.833 108.144C132.874 107.061 131.885 106.127 130.66 106.097C129.735 106.075 128.7 107.255 128.661 108.376C128.631 109.353 129.469 110.096 130.633 110.115Z" fill="#454543"/>
<path d="M203.696 161.942C203.419 158.341 203.635 154.706 203.635 151.085H203.732C203.732 149.304 203.732 147.523 203.732 145.742C203.732 142.919 203.92 140.078 203.662 137.278C203.37 134.094 203.163 130.919 203.182 127.727C203.184 127.297 203.159 126.868 203.106 126.442C202.778 123.766 202.286 121.102 202.138 118.418C201.941 114.549 201.107 110.739 199.669 107.14C199.443 106.576 199.482 105.879 198.969 105.465C196.639 103.585 194.8 101.192 192.101 99.6606C187.249 96.9036 182.591 97.6784 178.007 99.9901C175.368 101.32 173.098 103.269 170.966 105.337C169.684 106.583 168.621 108.034 167.822 109.631C166.064 113.105 165.063 116.832 164.043 120.549C163.656 121.959 163.682 123.477 163.4 124.921C162.366 130.292 161.882 135.754 161.957 141.222C161.986 144.092 161.969 146.987 162.411 149.855C162.635 151.373 162.703 152.909 162.611 154.44C162.513 156.209 163 157.855 163.368 159.527C163.578 160.482 164.266 160.915 165.091 160.853C166.028 160.783 166.725 160.204 166.89 159.288C166.963 158.875 167.017 158.407 166.91 158.009C166.513 156.509 166.448 154.997 166.416 153.452C166.336 149.592 166.083 145.732 165.986 141.866C165.9 138.481 166.187 135.111 166.515 131.742C166.764 129.178 167.114 126.621 167.514 124.075C168.067 120.552 169.3 117.227 170.492 113.874C172.218 109.008 175.484 105.614 180.016 103.418C182.172 102.373 184.589 101.626 187.013 102.051C191.335 102.815 194.304 105.497 196.008 109.437C196.838 111.332 197.289 113.401 197.502 115.494C198.092 121.283 198.92 127.057 199.171 132.886C199.327 136.502 199.713 140.101 199.669 143.733C199.593 149.873 199.331 156.012 199.751 162.157C199.975 165.465 199.843 168.785 199.853 172.1C199.859 172.961 199.986 173.816 200.231 174.642C200.516 175.618 201.591 176.215 202.583 176.02C203.521 175.84 203.881 175.166 203.927 174.282C203.985 173.608 204.009 172.931 203.997 172.254C203.819 168.819 203.954 165.388 203.696 161.942Z" fill="#454543"/>
<path d="M186.227 133.489C185.634 133.533 185.219 133.853 184.736 134.124C182.69 135.279 180.923 135.984 179.004 133.321C178.461 132.568 177.69 132.478 176.943 132.273C176.028 132.021 175.647 132.813 175.161 133.321C174.656 133.849 174.443 134.561 174.884 135.176C176.593 137.553 178.667 139.367 182.337 139.265C184.136 139.327 186.037 138.399 187.779 137.059C188.409 136.574 188.697 135.426 188.42 134.74C188.052 133.821 187.277 133.407 186.227 133.489Z" fill="#454543"/>
<path d="M187.985 119.209C186.904 119.201 185.878 120.281 185.822 121.484C185.774 122.56 186.564 123.276 187.837 123.295C189.359 123.324 190.165 122.662 190.181 121.38C190.198 120.098 189.309 119.209 187.985 119.209Z" fill="#454543"/>
<path d="M176.586 125.018C177.878 125.042 178.739 124.271 178.786 123.047C178.828 121.963 177.838 121.03 176.614 121C175.688 120.978 174.653 122.158 174.614 123.278C174.584 124.256 175.422 124.999 176.586 125.018Z" fill="#454543"/>
<path d="M223.469 135.475C223.499 135.467 223.53 135.461 223.561 135.457C223.678 135.442 235.379 133.987 248.801 137.164C261.244 140.109 277.771 147.738 285.841 167.352" stroke="#454543" stroke-width="3" stroke-linecap="round"/>
<path d="M274.541 163.965L284.929 167.567C285.182 167.653 285.46 167.617 285.683 167.466C285.905 167.315 286.044 167.068 286.059 166.801L286.621 156.604" stroke="#454543" stroke-width="3" stroke-linecap="round"/>
<path d="M110.216 270.414C110.365 270.414 110.514 270.406 110.663 270.39C111.219 270.329 166.874 263.868 225.263 234.083C279.393 206.471 347.099 152.639 362.265 53" stroke="#454543" stroke-width="4.28734" stroke-linecap="round"/>
<path d="M108 270.797H484" stroke="#454543" stroke-width="4.28734" stroke-linecap="round"/>
<path d="M483.57 270.797L483.57 283.445" stroke="#454543" stroke-width="4.28734" stroke-linecap="round"/>
<path d="M420.117 270.797L420.117 283.445" stroke="#454543" stroke-width="4.28734" stroke-linecap="round"/>
<path d="M356.664 270.797L356.664 283.445" stroke="#454543" stroke-width="4.28734" stroke-linecap="round"/>
<path d="M293.215 270.797L293.215 283.445" stroke="#454543" stroke-width="4.28734" stroke-linecap="round"/>
<path d="M229.762 270.797L229.762 283.445" stroke="#454543" stroke-width="4.28734" stroke-linecap="round"/>
<path d="M166.309 270.797L166.309 283.445" stroke="#454543" stroke-width="4.28734" stroke-linecap="round"/>
<path d="M332.918 184.354L323.186 172.248C322.949 171.955 322.589 171.791 322.208 171.804C321.829 171.818 321.477 172.008 321.259 172.317L312.935 184.102" stroke="#454543" stroke-width="3.42987" stroke-linecap="round"/>
<path d="M316.323 242.208L325.251 254.919C325.469 255.226 325.818 255.413 326.198 255.425C326.577 255.436 326.94 255.268 327.178 254.974L336.248 243.753" stroke="#454543" stroke-width="3.42987" stroke-linecap="round"/>
<line x1="322.364" y1="171.224" x2="327.509" y2="253.541" stroke="#454543" stroke-width="3.42987"/>
<path d="M451.55 357.074C451.779 352.614 451.924 348.152 451.949 344.242C451.949 340.103 451.988 336.518 451.937 332.934C451.891 329.68 451.034 326.583 449.921 323.546C449.241 321.691 448.39 319.944 447.158 318.37C444.775 315.307 441.96 312.877 438.169 311.718C437.122 311.398 436.091 310.969 434.991 311.002C433.121 311.061 431.271 311.403 429.505 312.017C424.287 313.812 421.126 317.838 418.616 322.405C417.454 324.519 416.748 326.903 415.991 329.214C413.832 335.789 413.242 342.619 413.018 349.473C412.923 352.366 413.237 355.275 413.19 358.182C413.162 359.71 413.49 360.228 414.429 360.247C415.367 360.267 415.842 359.702 416.007 358.342C416.025 358.188 416.034 358.032 416.034 357.876C416.04 356.578 416.108 355.276 416.034 353.983C415.72 348.516 416.239 343.11 416.998 337.703C417.63 333.196 418.976 328.906 420.902 324.836C422.356 321.763 424.167 318.883 427.135 316.867C430.402 314.644 435.212 313.333 439.472 315.732C442.275 317.309 444.361 319.685 445.694 322.506C447.264 325.83 448.283 329.401 448.344 333.141C448.416 337.445 448.506 341.753 448.411 346.055C448.326 349.943 448.328 353.835 448.009 357.718C447.757 360.781 448.203 363.839 448.274 366.901C448.296 367.835 448.308 368.776 448.43 369.699C448.565 370.726 449.341 371.311 450.374 371.306C451.154 371.306 451.932 370.46 451.996 369.5C452.019 369.142 451.941 368.778 451.908 368.417C451.561 364.639 451.354 360.856 451.55 357.074Z" fill="#454543"/>
<path d="M436.252 334.742C434.904 333.998 433.57 333.116 431.979 333.352C431.282 333.238 430.569 333.297 429.901 333.523C428.314 334.028 427.012 334.907 426.273 336.471C425.971 337.116 426.015 337.741 426.55 338.167C427.066 338.579 427.717 338.527 428.289 338.167C428.548 337.994 428.791 337.798 429.015 337.582C430.501 336.207 432.12 336.088 433.753 337.249C434.134 337.52 434.476 337.852 434.88 338.078C435.954 338.679 437.45 337.869 437.362 336.692C437.299 335.917 436.956 335.127 436.252 334.742Z" fill="#454543"/>
<path d="M427.525 326.681C427.512 325.828 426.65 324.909 425.885 324.928C424.868 324.953 423.843 325.992 423.901 326.938C423.947 327.685 425.082 328.557 425.955 328.517C426.758 328.48 427.539 327.563 427.525 326.681Z" fill="#454543"/>
<path d="M437.099 324.857C436.251 324.8 435.109 325.856 435.086 326.719C435.068 327.427 436.07 328.284 436.939 328.3C437.855 328.317 438.563 327.586 438.579 326.603C438.598 325.807 437.832 324.906 437.099 324.857Z" fill="#454543"/>
<path d="M391.231 347.824C391.199 347.824 391.168 347.822 391.137 347.818C391.02 347.804 379.326 346.297 367.119 339.874C355.802 333.921 341.698 322.414 338.771 301.408" stroke="#454543" stroke-width="3" stroke-linecap="round"/>
<path d="M348.87 307.504L339.707 301.427C339.485 301.28 339.206 301.246 338.953 301.337C338.7 301.427 338.504 301.632 338.423 301.887L335.337 311.622" stroke="#454543" stroke-width="3" stroke-linecap="round"/>
</svg>
