<svg width="600" height="424" viewBox="0 0 600 424" fill="none" xmlns="http://www.w3.org/2000/svg">
<rect width="600" height="424" fill="#FFF6ED"/>
<path d="M143.485 200.142C143.828 193.491 144.043 186.838 144.08 181.007C144.08 174.835 144.139 169.489 144.063 164.145C143.994 159.292 142.716 154.674 141.057 150.146C140.043 147.379 138.774 144.774 136.936 142.427C133.383 137.859 129.185 134.236 123.532 132.507C121.971 132.03 120.433 131.39 118.793 131.439C116.005 131.528 113.246 132.038 110.612 132.953C102.831 135.629 98.1171 141.634 94.3746 148.443C92.6411 151.596 91.5893 155.151 90.4609 158.597C87.2402 168.402 86.3612 178.587 86.0269 188.808C85.8851 193.121 86.3531 197.459 86.2829 201.794C86.2422 204.073 86.7314 204.845 88.1306 204.874C89.5297 204.903 90.2375 204.06 90.4837 202.034C90.5107 201.803 90.5243 201.571 90.5245 201.338C90.5326 199.403 90.6354 197.461 90.5245 195.532C90.0565 187.38 90.8294 179.319 91.9611 171.257C92.9037 164.536 94.9111 158.138 97.7827 152.068C99.9516 147.486 102.652 143.192 107.078 140.185C111.95 136.871 119.122 134.916 125.476 138.492C129.655 140.845 132.765 144.388 134.753 148.595C137.094 153.551 138.614 158.876 138.706 164.453C138.812 170.871 138.947 177.296 138.805 183.711C138.678 189.508 138.681 195.312 138.205 201.102C137.83 205.67 138.495 210.229 138.601 214.795C138.634 216.189 138.652 217.592 138.833 218.969C139.035 220.499 140.191 221.372 141.732 221.365C142.895 221.365 144.056 220.104 144.15 218.671C144.185 218.137 144.069 217.595 144.02 217.056C143.502 211.423 143.193 205.782 143.485 200.142Z" fill="#161935"/>
<path d="M120.672 166.84C118.661 165.732 116.671 164.417 114.299 164.768C113.261 164.598 112.196 164.686 111.2 165.024C108.834 165.776 106.892 167.086 105.791 169.419C105.34 170.381 105.406 171.314 106.204 171.948C106.974 172.562 107.944 172.486 108.797 171.948C109.183 171.69 109.545 171.398 109.879 171.076C112.096 169.025 114.509 168.848 116.945 170.58C117.513 170.983 118.023 171.478 118.625 171.815C120.226 172.712 122.457 171.504 122.327 169.749C122.232 168.594 121.722 167.415 120.672 166.84Z" fill="#161935"/>
<path d="M107.662 154.819C107.642 153.548 106.357 152.177 105.216 152.205C103.699 152.242 102.171 153.792 102.257 155.203C102.326 156.317 104.019 157.617 105.32 157.557C106.519 157.502 107.683 156.134 107.662 154.819Z" fill="#161935"/>
<path d="M121.936 152.101C120.671 152.016 118.968 153.59 118.934 154.878C118.906 155.932 120.402 157.21 121.696 157.235C123.063 157.261 124.118 156.17 124.142 154.703C124.17 153.517 123.029 152.174 121.936 152.101Z" fill="#161935"/>
<path d="M162.512 116.735C161.719 116.442 161.091 116.735 160.62 117.38C160.423 117.647 160.267 117.94 160.154 118.25C159.232 120.812 157.669 123.057 156.253 125.328C154.98 127.376 153.652 129.423 152.222 131.381C151.925 131.789 151.621 132.184 151.502 132.675C151.412 133.08 151.458 133.502 151.631 133.878C151.804 134.255 152.096 134.566 152.463 134.765C153.206 135.121 153.927 134.963 154.562 134.285C154.71 134.12 154.84 133.941 154.952 133.751C157.306 129.95 159.684 126.165 161.987 122.336C162.692 121.163 163.453 119.983 163.674 118.583C163.69 118.195 163.588 117.812 163.381 117.482C163.174 117.153 162.871 116.892 162.512 116.735V116.735Z" fill="#161935"/>
<path d="M130.786 74.0814V72.3222C130.786 71.7177 130.952 71.229 131.284 70.8562C131.62 70.4835 132.148 70.2721 132.866 70.2221V71.1767C132.561 71.2267 132.37 71.3154 132.293 71.4426C132.22 71.5654 132.184 71.7836 132.184 72.0972H132.866V74.0814H130.786ZM133.841 74.0814V72.3222C133.841 71.7222 134.009 71.2358 134.345 70.8631C134.682 70.4858 135.209 70.2721 135.927 70.2221V71.1767C135.623 71.2267 135.432 71.3154 135.355 71.4426C135.277 71.5654 135.239 71.7836 135.239 72.0972H135.927V74.0814H133.841ZM138.232 80V70.2221H140.121V80H138.232ZM142.419 74.0814V73.1268C142.723 73.0768 142.912 72.9905 142.985 72.8677C143.062 72.7404 143.101 72.52 143.101 72.2063H142.419V70.2221H144.498V71.9813C144.498 72.5859 144.33 73.0746 143.994 73.4473C143.662 73.8201 143.137 74.0314 142.419 74.0814ZM146.585 80V72.6018H148.249V73.3109H148.276C148.444 73.0473 148.687 72.8291 149.005 72.6563C149.328 72.4791 149.681 72.3904 150.062 72.3904C150.453 72.3904 150.822 72.4813 151.167 72.6632C151.512 72.845 151.774 73.0791 151.951 73.3655H151.978C152.169 73.0791 152.435 72.845 152.776 72.6632C153.122 72.4813 153.499 72.3904 153.908 72.3904C154.795 72.3904 155.495 72.6245 156.008 73.0927C156.522 73.561 156.779 74.1746 156.779 74.9338V80H155.122V75.3088C155.122 74.9451 155.017 74.6474 154.808 74.4156C154.599 74.1837 154.274 74.0678 153.833 74.0678C153.424 74.0678 153.11 74.1746 152.892 74.3883C152.674 74.6019 152.565 74.8769 152.565 75.2133V80H150.901V75.3088C150.901 74.9542 150.79 74.6587 150.567 74.4224C150.349 74.186 150.033 74.0678 149.619 74.0678C149.206 74.0678 148.89 74.1746 148.671 74.3883C148.453 74.6019 148.344 74.8769 148.344 75.2133V80H146.585ZM162.159 80V72.6018H163.904V73.3109H163.931C164.131 73.0518 164.409 72.8336 164.763 72.6563C165.118 72.4791 165.493 72.3904 165.888 72.3904C166.711 72.3904 167.354 72.6336 167.818 73.12C168.282 73.6064 168.514 74.2837 168.514 75.152V80H166.7V75.602C166.7 75.0929 166.6 74.711 166.4 74.4565C166.204 74.1974 165.87 74.0678 165.397 74.0678C164.957 74.0678 164.609 74.1951 164.354 74.4496C164.104 74.6997 163.979 75.0406 163.979 75.4724V80H162.159ZM169.911 76.2975C169.911 75.802 169.973 75.3429 170.095 74.9201C170.218 74.4974 170.386 74.1337 170.6 73.8292C170.814 73.52 171.066 73.2564 171.357 73.0382C171.648 72.82 171.964 72.6586 172.305 72.5541C172.65 72.445 173.007 72.3904 173.375 72.3904C173.839 72.3904 174.278 72.4768 174.691 72.6495C175.105 72.8223 175.471 73.07 175.789 73.3928C176.112 73.711 176.366 74.1224 176.553 74.6269C176.739 75.127 176.832 75.6838 176.832 76.2975C176.832 76.9157 176.744 77.4748 176.566 77.9749C176.389 78.4704 176.144 78.8817 175.83 79.209C175.521 79.5318 175.155 79.7795 174.732 79.9523C174.314 80.125 173.862 80.2114 173.375 80.2114C172.889 80.2114 172.434 80.125 172.012 79.9523C171.593 79.7795 171.227 79.5318 170.914 79.209C170.6 78.8817 170.355 78.4704 170.177 77.9749C170 77.4748 169.911 76.9157 169.911 76.2975ZM171.698 76.2975C171.698 77.0384 171.846 77.6044 172.141 77.9953C172.441 78.3817 172.852 78.5749 173.375 78.5749C173.893 78.5749 174.3 78.3772 174.596 77.9817C174.896 77.5862 175.046 77.0248 175.046 76.2975C175.046 75.5747 174.894 75.0156 174.589 74.6201C174.284 74.2201 173.88 74.0201 173.375 74.0201C172.866 74.0201 172.459 74.2178 172.155 74.6133C171.85 75.0042 171.698 75.5656 171.698 76.2975ZM177.541 74.136V72.6018H178.728V70.7812H180.446V72.6018H182.314V74.136H180.473V77.1907C180.473 77.5862 180.537 77.8635 180.664 78.0226C180.796 78.1772 181.062 78.2544 181.462 78.2544H182.062V80H181.298C180.785 80 180.358 79.9477 180.017 79.8432C179.68 79.7341 179.414 79.5659 179.219 79.3386C179.023 79.1068 178.885 78.834 178.803 78.5204C178.726 78.2067 178.687 77.8203 178.687 77.3612V74.136H177.541ZM186.712 76.2975C186.712 75.6884 186.806 75.1315 186.992 74.6269C187.183 74.1224 187.433 73.711 187.742 73.3928C188.056 73.07 188.41 72.8223 188.806 72.6495C189.201 72.4768 189.61 72.3904 190.033 72.3904C190.879 72.3904 191.531 72.6973 191.99 73.3109H192.017V72.6018H193.749V80C193.749 81.0819 193.433 81.9115 192.801 82.4888C192.174 83.0661 191.363 83.3548 190.367 83.3548C189.59 83.3548 188.935 83.1866 188.403 82.8502C187.876 82.5138 187.49 82.066 187.244 81.5069L188.594 80.5728C188.813 80.9864 189.056 81.2887 189.324 81.4796C189.592 81.6751 189.94 81.7728 190.367 81.7728C190.84 81.7728 191.22 81.6478 191.506 81.3978C191.792 81.1523 191.936 80.7614 191.936 80.225V79.2909H191.908C191.767 79.5409 191.524 79.7568 191.179 79.9386C190.838 80.1205 190.465 80.2114 190.06 80.2114C189.601 80.2114 189.169 80.125 188.765 79.9523C188.365 79.7795 188.01 79.5318 187.701 79.209C187.397 78.8863 187.156 78.4749 186.978 77.9749C186.801 77.4703 186.712 76.9112 186.712 76.2975ZM188.526 76.2975C188.526 77.0294 188.694 77.593 189.031 77.9885C189.367 78.3794 189.804 78.5749 190.34 78.5749C190.822 78.5749 191.208 78.4294 191.499 78.1385C191.79 77.843 191.936 77.4817 191.936 77.0544V75.5338C191.936 75.1111 191.788 74.7542 191.492 74.4633C191.201 74.1678 190.817 74.0201 190.34 74.0201C189.804 74.0201 189.367 74.2155 189.031 74.6065C188.694 74.9974 188.526 75.5611 188.526 76.2975ZM195.624 80V72.6018H197.343V73.3791H197.37C197.511 73.1018 197.72 72.8791 197.997 72.7109C198.275 72.5427 198.575 72.4586 198.897 72.4586C199.12 72.4586 199.343 72.5063 199.566 72.6018L199.286 74.361C199.063 74.2837 198.872 74.2451 198.713 74.2451C197.868 74.2451 197.445 74.8088 197.445 75.9361V80H195.624ZM200.268 76.2975C200.268 75.1201 200.591 74.1746 201.236 73.4609C201.882 72.7473 202.698 72.3904 203.684 72.3904C204.666 72.3904 205.477 72.7473 206.118 73.4609C206.759 74.1746 207.08 75.1201 207.08 76.2975V76.843H202.109C202.136 77.4112 202.291 77.8476 202.573 78.1522C202.859 78.4522 203.25 78.6022 203.745 78.6022C203.968 78.6022 204.175 78.5704 204.366 78.5067C204.561 78.4385 204.734 78.3408 204.884 78.2135C205.034 78.0817 205.155 77.9612 205.245 77.8521C205.341 77.743 205.445 77.6067 205.559 77.443L206.827 78.5613C206.073 79.6613 205.055 80.2114 203.773 80.2114C202.741 80.2114 201.898 79.8568 201.243 79.1477C200.593 78.434 200.268 77.4839 200.268 76.2975ZM202.109 75.4861H205.32C205.28 75.0133 205.116 74.6451 204.83 74.3815C204.548 74.1133 204.166 73.9792 203.684 73.9792C203.239 73.9792 202.873 74.1246 202.586 74.4156C202.304 74.7019 202.145 75.0588 202.109 75.4861ZM208.055 78.0158C208.055 77.3657 208.243 76.8748 208.621 76.543C209.003 76.2111 209.65 75.9338 210.564 75.7111C211.15 75.5656 211.578 75.4429 211.846 75.3429C212.119 75.2429 212.291 75.152 212.364 75.0701C212.441 74.9838 212.48 74.8633 212.48 74.7088C212.48 74.4815 212.373 74.2951 212.16 74.1496C211.95 73.9996 211.639 73.9246 211.225 73.9246C210.962 73.9246 210.734 73.9587 210.544 74.0269C210.357 74.0951 210.205 74.1951 210.087 74.3269C209.973 74.4587 209.887 74.5837 209.828 74.7019C209.768 74.8156 209.712 74.961 209.657 75.1383L208.15 74.511C208.327 73.8928 208.671 73.3859 209.18 72.9905C209.689 72.5904 210.359 72.3904 211.191 72.3904C211.623 72.3904 212.019 72.445 212.378 72.5541C212.741 72.6632 213.066 72.8291 213.353 73.0518C213.644 73.2746 213.871 73.5791 214.035 73.9655C214.198 74.3474 214.28 74.7951 214.28 75.3088V80H212.76V79.2909H212.732C212.719 79.3136 212.696 79.3477 212.664 79.3931C212.637 79.4341 212.566 79.5068 212.453 79.6113C212.339 79.7159 212.212 79.8091 212.071 79.8909C211.935 79.9727 211.744 80.0455 211.498 80.1091C211.257 80.1773 210.998 80.2114 210.721 80.2114C210.262 80.2114 209.855 80.15 209.5 80.0273C209.15 79.9045 208.871 79.7386 208.662 79.5295C208.457 79.3204 208.305 79.0886 208.205 78.834C208.105 78.5795 208.055 78.3067 208.055 78.0158ZM209.8 77.893C209.8 78.3931 210.162 78.6431 210.884 78.6431C211.439 78.6431 211.853 78.5385 212.125 78.3294C212.398 78.1203 212.535 77.8635 212.535 77.5589V76.2702H212.507C212.466 76.3475 212.425 76.4066 212.385 76.4475C212.344 76.4884 212.203 76.5589 211.962 76.6589C211.721 76.7543 211.378 76.8589 210.932 76.9725C210.687 77.0316 210.482 77.0998 210.319 77.1771C210.159 77.2498 210.044 77.3294 209.971 77.4157C209.903 77.5021 209.857 77.5817 209.834 77.6544C209.812 77.7226 209.8 77.8021 209.8 77.893ZM215.33 74.136V72.6018H216.517V70.7812H218.235V72.6018H220.103V74.136H218.262V77.1907C218.262 77.5862 218.326 77.8635 218.453 78.0226C218.585 78.1772 218.851 78.2544 219.251 78.2544H219.851V80H219.087C218.574 80 218.146 79.9477 217.805 79.8432C217.469 79.7341 217.203 79.5659 217.008 79.3386C216.812 79.1068 216.673 78.834 216.592 78.5204C216.514 78.2067 216.476 77.8203 216.476 77.3612V74.136H215.33ZM224.501 78.0158C224.501 77.3657 224.69 76.8748 225.067 76.543C225.449 76.2111 226.097 75.9338 227.01 75.7111C227.597 75.5656 228.024 75.4429 228.292 75.3429C228.565 75.2429 228.738 75.152 228.811 75.0701C228.888 74.9838 228.927 74.8633 228.927 74.7088C228.927 74.4815 228.82 74.2951 228.606 74.1496C228.397 73.9996 228.086 73.9246 227.672 73.9246C227.408 73.9246 227.181 73.9587 226.99 74.0269C226.804 74.0951 226.651 74.1951 226.533 74.3269C226.42 74.4587 226.333 74.5837 226.274 74.7019C226.215 74.8156 226.158 74.961 226.104 75.1383L224.597 74.511C224.774 73.8928 225.117 73.3859 225.626 72.9905C226.135 72.5904 226.806 72.3904 227.638 72.3904C228.07 72.3904 228.465 72.445 228.824 72.5541C229.188 72.6632 229.513 72.8291 229.799 73.0518C230.09 73.2746 230.318 73.5791 230.481 73.9655C230.645 74.3474 230.727 74.7951 230.727 75.3088V80H229.206V79.2909H229.179C229.165 79.3136 229.142 79.3477 229.111 79.3931C229.083 79.4341 229.013 79.5068 228.899 79.6113C228.786 79.7159 228.658 79.8091 228.517 79.8909C228.381 79.9727 228.19 80.0455 227.945 80.1091C227.704 80.1773 227.445 80.2114 227.167 80.2114C226.708 80.2114 226.301 80.15 225.947 80.0273C225.597 79.9045 225.317 79.7386 225.108 79.5295C224.904 79.3204 224.751 79.0886 224.651 78.834C224.551 78.5795 224.501 78.3067 224.501 78.0158ZM226.247 77.893C226.247 78.3931 226.608 78.6431 227.331 78.6431C227.886 78.6431 228.299 78.5385 228.572 78.3294C228.845 78.1203 228.981 77.8635 228.981 77.5589V76.2702H228.954C228.913 76.3475 228.872 76.4066 228.831 76.4475C228.79 76.4884 228.649 76.5589 228.408 76.6589C228.167 76.7543 227.824 76.8589 227.379 76.9725C227.133 77.0316 226.929 77.0998 226.765 77.1771C226.606 77.2498 226.49 77.3294 226.417 77.4157C226.349 77.5021 226.304 77.5817 226.281 77.6544C226.258 77.7226 226.247 77.8021 226.247 77.893ZM231.777 74.136V72.6018H232.963V70.7812H234.681V72.6018H236.55V74.136H234.709V77.1907C234.709 77.5862 234.772 77.8635 234.9 78.0226C235.031 78.1772 235.297 78.2544 235.697 78.2544H236.297V80H235.534C235.02 80 234.593 79.9477 234.252 79.8432C233.915 79.7341 233.65 79.5659 233.454 79.3386C233.259 79.1068 233.12 78.834 233.038 78.5204C232.961 78.2067 232.922 77.8203 232.922 77.3612V74.136H231.777ZM130.773 101.143V90.6018H132.504V91.3109H132.532C132.545 91.2882 132.568 91.2564 132.6 91.2155C132.632 91.17 132.704 91.095 132.818 90.9905C132.932 90.8859 133.057 90.7927 133.193 90.7109C133.334 90.6291 133.523 90.5563 133.759 90.4927C134 90.4245 134.257 90.3904 134.53 90.3904C134.943 90.3904 135.343 90.4768 135.73 90.6495C136.121 90.8223 136.471 91.07 136.78 91.3928C137.093 91.711 137.343 92.1224 137.53 92.6269C137.721 93.1315 137.816 93.6884 137.816 94.2975C137.816 94.9112 137.728 95.4703 137.55 95.9749C137.373 96.4749 137.132 96.8863 136.827 97.209C136.527 97.5318 136.182 97.7795 135.791 97.9523C135.4 98.125 134.989 98.2114 134.557 98.2114C134.289 98.2114 134.039 98.1796 133.807 98.1159C133.58 98.0523 133.395 97.9773 133.254 97.8909C133.118 97.8 132.998 97.7091 132.893 97.6182C132.793 97.5272 132.723 97.45 132.682 97.3863L132.62 97.2909H132.593V101.143H130.773ZM132.593 95.0544C132.593 95.4817 132.736 95.843 133.023 96.1385C133.314 96.4294 133.7 96.5749 134.182 96.5749C134.718 96.5749 135.155 96.3794 135.491 95.9885C135.827 95.593 135.996 95.0294 135.996 94.2975C135.996 93.5611 135.827 92.9974 135.491 92.6065C135.155 92.2155 134.718 92.0201 134.182 92.0201C133.705 92.0201 133.32 92.1678 133.029 92.4633C132.739 92.7542 132.593 93.1111 132.593 93.5338V95.0544ZM139.214 95.3748V90.6018H141.028V95.1771C141.028 95.6453 141.116 95.9771 141.294 96.1726C141.471 96.3681 141.755 96.4658 142.146 96.4658C142.582 96.4658 142.935 96.3544 143.203 96.1317C143.476 95.9044 143.612 95.5408 143.612 95.0407V90.6018H145.426V98H143.701V97.2909H143.667C143.494 97.5182 143.246 97.7295 142.923 97.925C142.605 98.1159 142.212 98.2114 141.744 98.2114C140.885 98.2114 140.248 97.9568 139.834 97.4477C139.421 96.934 139.214 96.2431 139.214 95.3748ZM147.383 98V87.8062H149.203V91.3109H149.231C149.249 91.2882 149.271 91.2564 149.299 91.2155C149.331 91.17 149.403 91.095 149.517 90.9905C149.635 90.8859 149.76 90.7927 149.892 90.7109C150.024 90.6291 150.199 90.5563 150.417 90.4927C150.64 90.4245 150.872 90.3904 151.112 90.3904C152.022 90.3904 152.776 90.7495 153.376 91.4678C153.981 92.186 154.283 93.1292 154.283 94.2975C154.283 95.4839 153.992 96.434 153.41 97.1477C152.828 97.8568 152.049 98.2114 151.072 98.2114C150.817 98.2114 150.576 98.1796 150.349 98.1159C150.121 98.0523 149.935 97.9773 149.79 97.8909C149.649 97.8 149.524 97.7091 149.415 97.6182C149.31 97.5272 149.235 97.45 149.19 97.3863L149.115 97.2909H149.087V98H147.383ZM149.203 94.9725C149.203 95.4226 149.344 95.8021 149.626 96.1112C149.912 96.4204 150.301 96.5749 150.792 96.5749C151.319 96.5749 151.731 96.3817 152.026 95.9953C152.322 95.6089 152.469 95.043 152.469 94.2975C152.469 93.5474 152.322 92.9815 152.026 92.5997C151.735 92.2133 151.324 92.0201 150.792 92.0201C150.301 92.0201 149.912 92.1746 149.626 92.4837C149.344 92.7928 149.203 93.1701 149.203 93.6156V94.9725ZM155.742 98V87.8062H157.631V98H155.742ZM159.588 98V90.6018H161.409V98H159.588ZM159.588 89.5245V87.8062H161.409V89.5245H159.588ZM162.868 94.2975C162.868 93.802 162.927 93.3429 163.045 92.9201C163.168 92.4974 163.336 92.1337 163.55 91.8292C163.763 91.52 164.016 91.2564 164.306 91.0382C164.597 90.82 164.913 90.6586 165.254 90.5541C165.595 90.445 165.954 90.3904 166.332 90.3904C167.163 90.3904 167.857 90.6336 168.411 91.12C168.97 91.6019 169.314 92.2474 169.441 93.0565L167.75 93.377C167.564 92.4724 167.091 92.0201 166.332 92.0201C165.818 92.0201 165.409 92.2133 165.104 92.5997C164.804 92.986 164.654 93.552 164.654 94.2975C164.654 95.043 164.802 95.6089 165.097 95.9953C165.397 96.3817 165.809 96.5749 166.332 96.5749C166.75 96.5749 167.079 96.4363 167.32 96.159C167.566 95.8771 167.725 95.4953 167.798 95.0134L169.516 95.4567C169.348 96.3385 168.984 97.0181 168.425 97.4954C167.87 97.9727 167.168 98.2114 166.318 98.2114C165.832 98.2114 165.379 98.125 164.961 97.9523C164.543 97.7795 164.177 97.5318 163.863 97.209C163.554 96.8817 163.311 96.4704 163.134 95.9749C162.956 95.4748 162.868 94.9157 162.868 94.2975ZM173.839 95.5589L175.475 95.1362C175.539 95.6317 175.712 96.0135 175.994 96.2817C176.28 96.5499 176.662 96.684 177.139 96.684C177.589 96.684 177.946 96.6113 178.21 96.4658C178.473 96.3203 178.605 96.1203 178.605 95.8658C178.605 95.643 178.501 95.4794 178.291 95.3748C178.082 95.2657 177.646 95.118 176.982 94.9316C176.819 94.8907 176.694 94.8566 176.607 94.8293C175.753 94.5839 175.123 94.2975 174.719 93.9702C174.318 93.6429 174.118 93.2042 174.118 92.6542C174.118 92.3633 174.18 92.0837 174.303 91.8155C174.425 91.5473 174.6 91.3064 174.828 91.0927C175.059 90.8791 175.355 90.7086 175.714 90.5813C176.078 90.4541 176.478 90.3904 176.914 90.3904C177.778 90.3904 178.464 90.5859 178.973 90.9768C179.487 91.3632 179.839 91.8928 180.03 92.5656L178.523 93.0292C178.391 92.6701 178.205 92.3905 177.964 92.1905C177.728 91.986 177.382 91.8837 176.928 91.8837C176.569 91.8837 176.285 91.9496 176.075 92.0814C175.871 92.2133 175.769 92.3746 175.769 92.5656C175.769 92.6383 175.775 92.6997 175.789 92.7497C175.807 92.7997 175.848 92.8542 175.912 92.9133C175.98 92.9679 176.057 93.0156 176.144 93.0565C176.23 93.0974 176.366 93.1497 176.553 93.2133C176.744 93.277 176.941 93.3406 177.146 93.4043C177.355 93.4633 177.637 93.5429 177.991 93.6429C178.437 93.7656 178.807 93.9043 179.103 94.0588C179.403 94.2134 179.632 94.3884 179.792 94.5839C179.955 94.7748 180.067 94.9748 180.126 95.1839C180.189 95.3885 180.221 95.6294 180.221 95.9067C180.221 96.1794 180.162 96.4476 180.044 96.7113C179.926 96.9704 179.748 97.2159 179.512 97.4477C179.28 97.675 178.964 97.8591 178.564 98C178.164 98.1409 177.712 98.2114 177.207 98.2114C176.671 98.2114 176.191 98.1341 175.769 97.9795C175.35 97.825 175.012 97.6182 174.753 97.359C174.493 97.0954 174.289 96.8136 174.139 96.5135C173.993 96.2135 173.893 95.8953 173.839 95.5589ZM181.612 101.143V90.6018H183.344V91.3109H183.371C183.385 91.2882 183.408 91.2564 183.44 91.2155C183.471 91.17 183.544 91.095 183.658 90.9905C183.771 90.8859 183.896 90.7927 184.033 90.7109C184.174 90.6291 184.362 90.5563 184.599 90.4927C184.84 90.4245 185.096 90.3904 185.369 90.3904C185.783 90.3904 186.183 90.4768 186.569 90.6495C186.96 90.8223 187.31 91.07 187.619 91.3928C187.933 91.711 188.183 92.1224 188.369 92.6269C188.56 93.1315 188.656 93.6884 188.656 94.2975C188.656 94.9112 188.567 95.4703 188.39 95.9749C188.213 96.4749 187.972 96.8863 187.667 97.209C187.367 97.5318 187.022 97.7795 186.631 97.9523C186.24 98.125 185.828 98.2114 185.396 98.2114C185.128 98.2114 184.878 98.1796 184.646 98.1159C184.419 98.0523 184.235 97.9773 184.094 97.8909C183.958 97.8 183.837 97.7091 183.733 97.6182C183.633 97.5272 183.562 97.45 183.521 97.3863L183.46 97.2909H183.433V101.143H181.612ZM183.433 95.0544C183.433 95.4817 183.576 95.843 183.862 96.1385C184.153 96.4294 184.54 96.5749 185.021 96.5749C185.558 96.5749 185.994 96.3794 186.331 95.9885C186.667 95.593 186.835 95.0294 186.835 94.2975C186.835 93.5611 186.667 92.9974 186.331 92.6065C185.994 92.2155 185.558 92.0201 185.021 92.0201C184.544 92.0201 184.16 92.1678 183.869 92.4633C183.578 92.7542 183.433 93.1111 183.433 93.5338V95.0544ZM189.638 94.2975C189.638 93.1201 189.96 92.1746 190.606 91.4609C191.251 90.7473 192.067 90.3904 193.054 90.3904C194.036 90.3904 194.847 90.7473 195.488 91.4609C196.129 92.1746 196.449 93.1201 196.449 94.2975V94.843H191.479C191.506 95.4112 191.661 95.8476 191.942 96.1522C192.229 96.4522 192.62 96.6022 193.115 96.6022C193.338 96.6022 193.545 96.5704 193.736 96.5067C193.931 96.4385 194.104 96.3408 194.254 96.2135C194.404 96.0817 194.524 95.9612 194.615 95.8521C194.711 95.743 194.815 95.6067 194.929 95.443L196.197 96.5613C195.443 97.6613 194.424 98.2114 193.142 98.2114C192.111 98.2114 191.267 97.8568 190.613 97.1477C189.963 96.434 189.638 95.4839 189.638 94.2975ZM191.479 93.4861H194.69C194.649 93.0133 194.486 92.6451 194.199 92.3815C193.917 92.1133 193.536 91.9792 193.054 91.9792C192.608 91.9792 192.242 92.1246 191.956 92.4156C191.674 92.7019 191.515 93.0588 191.479 93.4861ZM197.425 96.0158C197.425 95.3657 197.613 94.8748 197.99 94.543C198.372 94.2111 199.02 93.9338 199.934 93.7111C200.52 93.5656 200.947 93.4429 201.216 93.3429C201.488 93.2429 201.661 93.152 201.734 93.0701C201.811 92.9838 201.85 92.8633 201.85 92.7088C201.85 92.4815 201.743 92.2951 201.529 92.1496C201.32 91.9996 201.009 91.9246 200.595 91.9246C200.332 91.9246 200.104 91.9587 199.913 92.0269C199.727 92.0951 199.575 92.1951 199.456 92.3269C199.343 92.4587 199.256 92.5837 199.197 92.7019C199.138 92.8156 199.081 92.961 199.027 93.1383L197.52 92.511C197.697 91.8928 198.04 91.3859 198.55 90.9905C199.059 90.5904 199.729 90.3904 200.561 90.3904C200.993 90.3904 201.388 90.445 201.748 90.5541C202.111 90.6632 202.436 90.8291 202.723 91.0518C203.013 91.2746 203.241 91.5791 203.404 91.9655C203.568 92.3474 203.65 92.7951 203.65 93.3088V98H202.129V97.2909H202.102C202.088 97.3136 202.066 97.3477 202.034 97.3931C202.007 97.4341 201.936 97.5068 201.823 97.6113C201.709 97.7159 201.582 97.8091 201.441 97.8909C201.304 97.9727 201.113 98.0455 200.868 98.1091C200.627 98.1773 200.368 98.2114 200.091 98.2114C199.631 98.2114 199.225 98.15 198.87 98.0273C198.52 97.9045 198.24 97.7386 198.031 97.5295C197.827 97.3204 197.675 97.0886 197.575 96.834C197.475 96.5795 197.425 96.3067 197.425 96.0158ZM199.17 95.893C199.17 96.3931 199.531 96.6431 200.254 96.6431C200.809 96.6431 201.222 96.5385 201.495 96.3294C201.768 96.1203 201.904 95.8635 201.904 95.5589V94.2702H201.877C201.836 94.3475 201.795 94.4066 201.754 94.4475C201.713 94.4884 201.572 94.5589 201.332 94.6589C201.091 94.7543 200.747 94.8589 200.302 94.9725C200.056 95.0316 199.852 95.0998 199.688 95.1771C199.529 95.2498 199.413 95.3294 199.341 95.4157C199.272 95.5021 199.227 95.5817 199.204 95.6544C199.181 95.7226 199.17 95.8021 199.17 95.893ZM205.464 98V87.8062H207.284V93.6565H207.312L210.005 90.6018H212.282L209.616 93.602L212.521 98H210.509L208.246 94.618H208.218L207.284 95.6817V98H205.464ZM213.496 98V90.6018H215.317V98H213.496ZM213.496 89.5245V87.8062H215.317V89.5245H213.496ZM217.26 98V90.6018H219.005V91.3109H219.033C219.233 91.0518 219.51 90.8336 219.865 90.6563C220.219 90.4791 220.594 90.3904 220.99 90.3904C221.812 90.3904 222.456 90.6336 222.919 91.12C223.383 91.6064 223.615 92.2837 223.615 93.152V98H221.801V93.602C221.801 93.0929 221.701 92.711 221.501 92.4565C221.306 92.1974 220.971 92.0678 220.499 92.0678C220.058 92.0678 219.71 92.1951 219.455 92.4496C219.205 92.6997 219.08 93.0406 219.08 93.4724V98H217.26ZM225.013 94.2975C225.013 93.6884 225.106 93.1315 225.292 92.6269C225.483 92.1224 225.733 91.711 226.042 91.3928C226.356 91.07 226.71 90.8223 227.106 90.6495C227.501 90.4768 227.911 90.3904 228.333 90.3904C229.179 90.3904 229.831 90.6973 230.29 91.3109H230.318V90.6018H232.049V98C232.049 99.0819 231.734 99.9115 231.102 100.489C230.474 101.066 229.663 101.355 228.667 101.355C227.89 101.355 227.236 101.187 226.704 100.85C226.176 100.514 225.79 100.066 225.544 99.5069L226.895 98.5728C227.113 98.9864 227.356 99.2887 227.624 99.4796C227.892 99.6751 228.24 99.7728 228.667 99.7728C229.14 99.7728 229.52 99.6478 229.806 99.3978C230.093 99.1523 230.236 98.7614 230.236 98.225V97.2909H230.208C230.068 97.5409 229.824 97.7568 229.479 97.9386C229.138 98.1205 228.765 98.2114 228.361 98.2114C227.901 98.2114 227.47 98.125 227.065 97.9523C226.665 97.7795 226.31 97.5318 226.001 97.209C225.697 96.8863 225.456 96.4749 225.279 95.9749C225.101 95.4703 225.013 94.9112 225.013 94.2975ZM226.826 94.2975C226.826 95.0294 226.995 95.593 227.331 95.9885C227.667 96.3794 228.104 96.5749 228.64 96.5749C229.122 96.5749 229.508 96.4294 229.799 96.1385C230.09 95.843 230.236 95.4817 230.236 95.0544V93.5338C230.236 93.1111 230.088 92.7542 229.792 92.4633C229.502 92.1678 229.117 92.0201 228.64 92.0201C228.104 92.0201 227.667 92.2155 227.331 92.6065C226.995 92.9974 226.826 93.5611 226.826 94.2975ZM234.068 92.0814V91.1268C234.372 91.0768 234.561 90.9905 234.634 90.8677C234.711 90.7404 234.75 90.52 234.75 90.2063H234.068V88.2221H236.147V89.9813C236.147 90.5859 235.979 91.0746 235.643 91.4473C235.311 91.8201 234.786 92.0314 234.068 92.0814ZM237.123 92.0814V91.1268C237.427 91.0768 237.618 90.9905 237.695 90.8677C237.773 90.7404 237.811 90.52 237.811 90.2063H237.123V88.2221H239.209V89.9813C239.209 90.5813 239.041 91.07 238.704 91.4473C238.368 91.8201 237.841 92.0314 237.123 92.0814Z" fill="#161935"/>
<path d="M330.678 326.474C330.289 321.413 330.592 316.304 330.592 311.214H330.728C330.728 308.711 330.728 306.207 330.728 303.704C330.728 299.736 330.993 295.743 330.631 291.807C330.221 287.332 329.929 282.869 329.956 278.382C329.959 277.778 329.923 277.175 329.849 276.576C329.388 272.815 328.696 269.07 328.488 265.298C328.212 259.86 327.04 254.505 325.018 249.447C324.701 248.654 324.755 247.674 324.034 247.092C320.759 244.45 318.174 241.086 314.381 238.933C307.56 235.058 301.013 236.147 294.57 239.396C290.861 241.266 287.671 244.006 284.674 246.912C282.872 248.663 281.378 250.703 280.255 252.948C277.783 257.83 276.377 263.07 274.943 268.293C274.399 270.275 274.436 272.409 274.039 274.439C272.586 281.988 271.906 289.665 272.01 297.351C272.051 301.385 272.028 305.454 272.648 309.486C272.965 311.619 273.059 313.778 272.93 315.93C272.792 318.416 273.477 320.729 273.994 323.08C274.29 324.422 275.257 325.031 276.416 324.944C277.732 324.845 278.713 324.031 278.944 322.745C279.047 322.163 279.123 321.506 278.973 320.946C278.415 318.838 278.324 316.713 278.279 314.541C278.166 309.116 277.81 303.691 277.674 298.256C277.554 293.499 277.956 288.762 278.417 284.026C278.767 280.422 279.259 276.828 279.821 273.249C280.599 268.297 282.332 263.624 284.007 258.911C286.434 252.072 291.024 247.302 297.394 244.215C300.424 242.746 303.822 241.696 307.23 242.293C313.304 243.366 317.477 247.137 319.872 252.674C321.039 255.339 321.673 258.247 321.972 261.188C322.801 269.326 323.966 277.44 324.318 285.634C324.538 290.717 325.08 295.776 325.018 300.881C324.911 309.511 324.543 318.139 325.133 326.777C325.448 331.427 325.263 336.092 325.277 340.752C325.285 341.962 325.464 343.165 325.808 344.325C326.208 345.697 327.72 346.536 329.114 346.263C330.433 346.009 330.938 345.061 331.003 343.819C331.085 342.872 331.118 341.92 331.102 340.969C330.851 336.141 331.042 331.318 330.678 326.474Z" fill="#161935"/>
<path d="M306.123 286.481C305.291 286.543 304.707 286.992 304.029 287.374C301.152 288.998 298.668 289.988 295.971 286.245C295.208 285.187 294.125 285.061 293.075 284.772C291.789 284.417 291.252 285.532 290.57 286.245C289.86 286.987 289.56 287.988 290.181 288.853C292.583 292.193 295.498 294.743 300.656 294.599C303.184 294.687 305.857 293.383 308.305 291.499C309.19 290.817 309.595 289.203 309.206 288.24C308.689 286.948 307.599 286.367 306.123 286.481Z" fill="#161935"/>
<path d="M308.598 266.41C307.079 266.398 305.635 267.917 305.558 269.607C305.49 271.12 306.6 272.126 308.389 272.153C310.529 272.194 311.661 271.263 311.684 269.462C311.708 267.66 310.459 266.41 308.598 266.41Z" fill="#161935"/>
<path d="M292.57 274.575C294.386 274.608 295.596 273.525 295.662 271.804C295.72 270.281 294.33 268.969 292.608 268.927C291.307 268.896 289.852 270.554 289.798 272.129C289.755 273.503 290.934 274.548 292.57 274.575Z" fill="#161935"/>
<path d="M393.518 303.782C393.129 298.721 393.432 293.612 393.432 288.522H393.568C393.568 286.018 393.568 283.515 393.568 281.012C393.568 277.044 393.833 273.05 393.471 269.115C393.061 264.639 392.769 260.177 392.796 255.69C392.799 255.086 392.763 254.483 392.689 253.884C392.228 250.123 391.536 246.378 391.328 242.605C391.052 237.168 389.88 231.812 387.858 226.754C387.541 225.962 387.595 224.981 386.874 224.4C383.598 221.757 381.014 218.394 377.221 216.241C370.4 212.366 363.853 213.455 357.41 216.704C353.701 218.574 350.511 221.313 347.514 224.22C345.712 225.971 344.218 228.011 343.095 230.255C340.623 235.138 339.217 240.377 337.783 245.601C337.239 247.583 337.276 249.716 336.879 251.747C335.426 259.296 334.746 266.972 334.85 274.658C334.891 278.692 334.868 282.761 335.488 286.793C335.804 288.926 335.899 291.086 335.77 293.238C335.632 295.724 336.317 298.037 336.834 300.387C337.13 301.73 338.096 302.338 339.256 302.251C340.572 302.152 341.553 301.339 341.784 300.052C341.887 299.471 341.963 298.814 341.813 298.254C341.255 296.146 341.164 294.021 341.119 291.849C341.006 286.423 340.65 280.998 340.514 275.563C340.393 270.807 340.796 266.069 341.257 261.334C341.607 257.73 342.099 254.136 342.661 250.557C343.439 245.605 345.172 240.931 346.847 236.219C349.274 229.38 353.864 224.609 360.234 221.523C363.264 220.054 366.662 219.004 370.069 219.601C376.143 220.674 380.317 224.445 382.712 229.982C383.879 232.646 384.513 235.555 384.812 238.496C385.641 246.634 386.806 254.748 387.158 262.942C387.377 268.024 387.92 273.083 387.858 278.189C387.751 286.819 387.383 295.447 387.973 304.084C388.288 308.734 388.103 313.4 388.117 318.06C388.125 319.27 388.304 320.472 388.648 321.633C389.048 323.005 390.559 323.843 391.954 323.57C393.273 323.316 393.778 322.369 393.842 321.127C393.924 320.179 393.958 319.228 393.942 318.277C393.691 313.448 393.881 308.626 393.518 303.782Z" fill="#161935"/>
<path d="M368.963 263.789C368.131 263.851 367.547 264.3 366.868 264.682C363.992 266.305 361.508 267.296 358.81 263.552C358.048 262.494 356.965 262.368 355.914 262.08C354.629 261.725 354.092 262.839 353.409 263.552C352.699 264.294 352.4 265.296 353.02 266.16C355.422 269.5 358.338 272.05 363.496 271.907C366.024 271.994 368.697 270.69 371.145 268.807C372.03 268.125 372.435 266.511 372.046 265.548C371.528 264.256 370.439 263.674 368.963 263.789Z" fill="#161935"/>
<path d="M371.437 243.717C369.918 243.706 368.475 245.225 368.397 246.914C368.329 248.428 369.44 249.433 371.229 249.46C373.369 249.501 374.501 248.571 374.524 246.769C374.547 244.967 373.299 243.717 371.437 243.717Z" fill="#161935"/>
<path d="M355.409 251.882C357.226 251.915 358.436 250.832 358.502 249.112C358.56 247.589 357.17 246.277 355.448 246.234C354.147 246.203 352.692 247.862 352.638 249.437C352.595 250.811 353.774 251.855 355.409 251.882Z" fill="#161935"/>
<path d="M458.104 324.728C457.715 319.667 458.018 314.558 458.018 309.468H458.154C458.154 306.965 458.154 304.461 458.154 301.958C458.154 297.99 458.419 293.997 458.057 290.061C457.647 285.586 457.355 281.123 457.382 276.636C457.385 276.032 457.349 275.429 457.275 274.83C456.814 271.069 456.122 267.324 455.914 263.552C455.638 258.114 454.466 252.759 452.444 247.7C452.127 246.908 452.181 245.928 451.46 245.346C448.184 242.703 445.6 239.34 441.807 237.187C434.986 233.312 428.439 234.401 421.996 237.65C418.287 239.52 415.097 242.26 412.1 245.166C410.298 246.917 408.804 248.957 407.681 251.202C405.209 256.084 403.803 261.323 402.369 266.547C401.825 268.529 401.862 270.662 401.465 272.693C400.012 280.242 399.332 287.919 399.436 295.605C399.477 299.639 399.454 303.708 400.074 307.74C400.39 309.872 400.485 312.032 400.356 314.184C400.218 316.67 400.903 318.983 401.42 321.334C401.716 322.676 402.682 323.285 403.842 323.198C405.158 323.099 406.139 322.285 406.37 320.998C406.473 320.417 406.549 319.76 406.399 319.2C405.841 317.092 405.75 314.967 405.705 312.795C405.592 307.37 405.236 301.944 405.1 296.51C404.979 291.753 405.382 287.016 405.843 282.28C406.193 278.676 406.685 275.082 407.247 271.503C408.025 266.551 409.758 261.878 411.433 257.165C413.86 250.326 418.45 245.556 424.82 242.469C427.85 241 431.248 239.95 434.655 240.547C440.729 241.62 444.903 245.391 447.297 250.928C448.464 253.593 449.099 256.501 449.398 259.442C450.227 267.58 451.392 275.694 451.744 283.888C451.963 288.971 452.506 294.029 452.444 299.135C452.337 307.765 451.969 316.393 452.559 325.031C452.874 329.681 452.689 334.346 452.702 339.006C452.711 340.216 452.89 341.419 453.233 342.579C453.634 343.951 455.145 344.79 456.54 344.517C457.859 344.263 458.364 343.315 458.428 342.073C458.51 341.126 458.544 340.174 458.528 339.223C458.277 334.395 458.467 329.572 458.104 324.728Z" fill="#161935"/>
<path d="M433.549 284.735C432.717 284.797 432.133 285.246 431.454 285.628C428.578 287.252 426.094 288.242 423.396 284.499C422.634 283.441 421.551 283.315 420.5 283.026C419.215 282.671 418.678 283.786 417.995 284.499C417.285 285.241 416.986 286.242 417.606 287.107C420.008 290.447 422.924 292.997 428.082 292.853C430.61 292.941 433.283 291.637 435.731 289.753C436.616 289.071 437.021 287.457 436.632 286.494C436.114 285.202 435.025 284.621 433.549 284.735Z" fill="#161935"/>
<path d="M436.023 264.664C434.504 264.652 433.061 266.171 432.983 267.861C432.915 269.374 434.026 270.38 435.815 270.407C437.955 270.447 439.087 269.517 439.11 267.715C439.133 265.913 437.885 264.664 436.023 264.664Z" fill="#161935"/>
<path d="M419.995 272.829C421.812 272.862 423.022 271.778 423.088 270.058C423.146 268.535 421.755 267.223 420.034 267.181C418.733 267.15 417.278 268.808 417.224 270.383C417.181 271.757 418.36 272.801 419.995 272.829Z" fill="#161935"/>
<path d="M362.416 170.07C361.621 170.36 361.334 170.991 361.392 171.787C361.416 172.117 361.486 172.442 361.601 172.752C362.56 175.3 362.823 178.023 363.217 180.67C363.573 183.055 363.889 185.474 364.068 187.893C364.106 188.396 364.131 188.894 364.359 189.345C364.552 189.711 364.86 190.003 365.236 190.178C365.612 190.352 366.036 190.4 366.445 190.314C367.241 190.104 367.688 189.516 367.732 188.588C367.738 188.366 367.721 188.145 367.684 187.928C367.013 183.508 366.372 179.084 365.645 174.676C365.422 173.325 365.237 171.933 364.499 170.724C364.26 170.418 363.933 170.192 363.562 170.075C363.19 169.959 362.791 169.957 362.416 170.07V170.07Z" fill="#161935"/>
<path d="M328.345 189.607C327.519 189.427 326.938 189.806 326.561 190.51C326.404 190.801 326.29 191.113 326.222 191.437C325.668 194.102 324.433 196.543 323.349 198.99C322.374 201.195 321.345 203.408 320.203 205.547C319.966 205.992 319.72 206.426 319.671 206.929C319.639 207.342 319.743 207.754 319.967 208.102C320.191 208.451 320.524 208.719 320.915 208.864C321.7 209.113 322.392 208.855 322.926 208.095C323.049 207.911 323.154 207.716 323.238 207.512C325.037 203.419 326.863 199.339 328.608 195.226C329.142 193.966 329.731 192.691 329.754 191.274C329.716 190.888 329.561 190.522 329.31 190.225C329.059 189.927 328.723 189.712 328.345 189.607V189.607Z" fill="#161935"/>
<path d="M407.447 188.478C406.673 188.819 406.426 189.466 406.536 190.257C406.581 190.585 406.672 190.905 406.807 191.207C407.927 193.688 408.365 196.388 408.928 199.005C409.437 201.361 409.908 203.756 410.242 206.157C410.313 206.657 410.369 207.152 410.626 207.588C410.843 207.94 411.169 208.212 411.555 208.363C411.942 208.513 412.368 208.533 412.77 208.421C413.551 208.16 413.959 207.544 413.944 206.615C413.935 206.394 413.904 206.175 413.853 205.96C412.899 201.593 411.975 197.219 410.966 192.866C410.656 191.533 410.382 190.156 409.567 188.997C409.309 188.707 408.969 188.502 408.591 188.41C408.213 188.317 407.814 188.341 407.447 188.478Z" fill="#161935"/>
<path d="M295.361 131.081V129.322C295.361 128.718 295.527 128.229 295.859 127.856C296.195 127.483 296.723 127.272 297.441 127.222V128.177C297.136 128.227 296.946 128.315 296.868 128.443C296.796 128.565 296.759 128.784 296.759 129.097H297.441V131.081H295.361ZM298.416 131.081V129.322C298.416 128.722 298.584 128.236 298.921 127.863C299.257 127.486 299.784 127.272 300.503 127.222V128.177C300.198 128.227 300.007 128.315 299.93 128.443C299.853 128.565 299.814 128.784 299.814 129.097H300.503V131.081H298.416ZM301.757 128.968V127.222H309.374V128.968H306.51V137H304.621V128.968H301.757ZM310.492 137V126.806H312.312V130.311H312.34C312.485 130.065 312.728 129.852 313.069 129.67C313.415 129.484 313.772 129.39 314.14 129.39C314.926 129.39 315.554 129.634 316.022 130.12C316.49 130.602 316.724 131.252 316.724 132.07V137H314.91V132.472C314.91 132.059 314.799 131.722 314.576 131.463C314.358 131.2 314.031 131.068 313.594 131.068C313.176 131.068 312.858 131.188 312.64 131.429C312.422 131.666 312.312 131.972 312.312 132.35V137H310.492ZM318.122 135.016C318.122 134.366 318.311 133.875 318.688 133.543C319.07 133.211 319.717 132.934 320.631 132.711C321.218 132.566 321.645 132.443 321.913 132.343C322.186 132.243 322.359 132.152 322.431 132.07C322.509 131.984 322.547 131.863 322.547 131.709C322.547 131.481 322.44 131.295 322.227 131.15C322.018 131 321.706 130.925 321.293 130.925C321.029 130.925 320.802 130.959 320.611 131.027C320.424 131.095 320.272 131.195 320.154 131.327C320.04 131.459 319.954 131.584 319.895 131.702C319.836 131.816 319.779 131.961 319.724 132.138L318.217 131.511C318.395 130.893 318.738 130.386 319.247 129.99C319.756 129.59 320.427 129.39 321.258 129.39C321.69 129.39 322.086 129.445 322.445 129.554C322.809 129.663 323.134 129.829 323.42 130.052C323.711 130.275 323.938 130.579 324.102 130.966C324.265 131.347 324.347 131.795 324.347 132.309V137H322.827V136.291H322.799C322.786 136.314 322.763 136.348 322.731 136.393C322.704 136.434 322.634 136.507 322.52 136.611C322.406 136.716 322.279 136.809 322.138 136.891C322.002 136.973 321.811 137.045 321.565 137.109C321.324 137.177 321.065 137.211 320.788 137.211C320.329 137.211 319.922 137.15 319.567 137.027C319.217 136.905 318.938 136.739 318.729 136.53C318.524 136.32 318.372 136.089 318.272 135.834C318.172 135.579 318.122 135.307 318.122 135.016ZM319.867 134.893C319.867 135.393 320.229 135.643 320.952 135.643C321.506 135.643 321.92 135.539 322.193 135.329C322.465 135.12 322.602 134.863 322.602 134.559V133.27H322.574C322.534 133.347 322.493 133.407 322.452 133.447C322.411 133.488 322.27 133.559 322.029 133.659C321.788 133.754 321.445 133.859 320.999 133.973C320.754 134.032 320.549 134.1 320.386 134.177C320.227 134.25 320.111 134.329 320.038 134.416C319.97 134.502 319.924 134.582 319.902 134.654C319.879 134.723 319.867 134.802 319.867 134.893ZM325.397 131.136V129.602H326.584V127.781H328.302V129.602H330.17V131.136H328.329V134.191C328.329 134.586 328.393 134.863 328.52 135.023C328.652 135.177 328.918 135.254 329.318 135.254H329.918V137H329.154C328.641 137 328.213 136.948 327.872 136.843C327.536 136.734 327.27 136.566 327.075 136.339C326.879 136.107 326.741 135.834 326.659 135.52C326.581 135.207 326.543 134.82 326.543 134.361V131.136H325.397ZM331.705 131.081V130.127C332.009 130.077 332.198 129.99 332.27 129.868C332.348 129.74 332.386 129.52 332.386 129.206H331.705V127.222H333.784V128.981C333.784 129.586 333.616 130.075 333.28 130.447C332.948 130.82 332.423 131.031 331.705 131.081ZM334.889 134.559L336.525 134.136C336.589 134.632 336.762 135.014 337.044 135.282C337.33 135.55 337.712 135.684 338.189 135.684C338.639 135.684 338.996 135.611 339.26 135.466C339.523 135.32 339.655 135.12 339.655 134.866C339.655 134.643 339.551 134.479 339.341 134.375C339.132 134.266 338.696 134.118 338.032 133.932C337.869 133.891 337.744 133.857 337.657 133.829C336.803 133.584 336.173 133.297 335.768 132.97C335.368 132.643 335.168 132.204 335.168 131.654C335.168 131.363 335.23 131.084 335.353 130.816C335.475 130.547 335.65 130.306 335.878 130.093C336.109 129.879 336.405 129.709 336.764 129.581C337.128 129.454 337.528 129.39 337.964 129.39C338.828 129.39 339.514 129.586 340.023 129.977C340.537 130.363 340.889 130.893 341.08 131.566L339.573 132.029C339.441 131.67 339.255 131.391 339.014 131.191C338.778 130.986 338.432 130.884 337.978 130.884C337.619 130.884 337.334 130.95 337.125 131.081C336.921 131.213 336.819 131.375 336.819 131.566C336.819 131.638 336.825 131.7 336.839 131.75C336.857 131.8 336.898 131.854 336.962 131.913C337.03 131.968 337.107 132.016 337.194 132.057C337.28 132.097 337.416 132.15 337.603 132.213C337.794 132.277 337.991 132.341 338.196 132.404C338.405 132.463 338.687 132.543 339.041 132.643C339.487 132.766 339.857 132.904 340.153 133.059C340.453 133.213 340.682 133.388 340.842 133.584C341.005 133.775 341.117 133.975 341.176 134.184C341.239 134.388 341.271 134.629 341.271 134.907C341.271 135.179 341.212 135.448 341.094 135.711C340.976 135.97 340.798 136.216 340.562 136.448C340.33 136.675 340.014 136.859 339.614 137C339.214 137.141 338.762 137.211 338.257 137.211C337.721 137.211 337.241 137.134 336.819 136.98C336.4 136.825 336.062 136.618 335.803 136.359C335.543 136.095 335.339 135.814 335.189 135.514C335.043 135.214 334.943 134.895 334.889 134.559ZM346.153 137V129.602H347.899V130.311H347.926C348.126 130.052 348.403 129.834 348.758 129.656C349.112 129.479 349.488 129.39 349.883 129.39C350.706 129.39 351.349 129.634 351.813 130.12C352.276 130.606 352.508 131.284 352.508 132.152V137H350.694V132.602C350.694 132.093 350.594 131.711 350.394 131.456C350.199 131.197 349.865 131.068 349.392 131.068C348.951 131.068 348.603 131.195 348.349 131.45C348.099 131.7 347.974 132.041 347.974 132.472V137H346.153ZM353.906 133.297C353.906 132.802 353.967 132.343 354.09 131.92C354.213 131.497 354.381 131.134 354.595 130.829C354.808 130.52 355.061 130.256 355.352 130.038C355.642 129.82 355.958 129.659 356.299 129.554C356.645 129.445 357.002 129.39 357.37 129.39C357.834 129.39 358.272 129.477 358.686 129.65C359.099 129.822 359.465 130.07 359.784 130.393C360.106 130.711 360.361 131.122 360.547 131.627C360.734 132.127 360.827 132.684 360.827 133.297C360.827 133.916 360.738 134.475 360.561 134.975C360.384 135.47 360.138 135.882 359.825 136.209C359.515 136.532 359.149 136.78 358.727 136.952C358.309 137.125 357.856 137.211 357.37 137.211C356.883 137.211 356.429 137.125 356.006 136.952C355.588 136.78 355.222 136.532 354.908 136.209C354.595 135.882 354.349 135.47 354.172 134.975C353.995 134.475 353.906 133.916 353.906 133.297ZM355.692 133.297C355.692 134.038 355.84 134.604 356.136 134.995C356.436 135.382 356.847 135.575 357.37 135.575C357.888 135.575 358.295 135.377 358.59 134.982C358.89 134.586 359.04 134.025 359.04 133.297C359.04 132.575 358.888 132.016 358.584 131.62C358.279 131.22 357.874 131.02 357.37 131.02C356.861 131.02 356.454 131.218 356.149 131.613C355.845 132.004 355.692 132.566 355.692 133.297ZM361.536 131.136V129.602H362.722V127.781H364.441V129.602H366.309V131.136H364.468V134.191C364.468 134.586 364.532 134.863 364.659 135.023C364.791 135.177 365.057 135.254 365.457 135.254H366.057V137H365.293C364.779 137 364.352 136.948 364.011 136.843C363.675 136.734 363.409 136.566 363.213 136.339C363.018 136.107 362.879 135.834 362.797 135.52C362.72 135.207 362.682 134.82 362.682 134.361V131.136H361.536ZM370.427 131.136V129.602H371.614V127.781H373.332V129.602H375.201V131.136H373.359V134.191C373.359 134.586 373.423 134.863 373.55 135.023C373.682 135.177 373.948 135.254 374.348 135.254H374.948V137H374.185C373.671 137 373.244 136.948 372.903 136.843C372.566 136.734 372.3 136.566 372.105 136.339C371.909 136.107 371.771 135.834 371.689 135.52C371.612 135.207 371.573 134.82 371.573 134.361V131.136H370.427ZM376.592 137V129.602H378.31V130.379H378.337C378.478 130.102 378.687 129.879 378.964 129.711C379.242 129.543 379.542 129.459 379.864 129.459C380.087 129.459 380.31 129.506 380.533 129.602L380.253 131.361C380.03 131.284 379.839 131.245 379.68 131.245C378.835 131.245 378.412 131.809 378.412 132.936V137H376.592ZM381.651 134.375V129.602H383.465V134.177C383.465 134.645 383.553 134.977 383.731 135.173C383.908 135.368 384.192 135.466 384.583 135.466C385.019 135.466 385.372 135.354 385.64 135.132C385.913 134.904 386.049 134.541 386.049 134.041V129.602H387.863V137H386.138V136.291H386.103C385.931 136.518 385.683 136.73 385.36 136.925C385.042 137.116 384.649 137.211 384.181 137.211C383.321 137.211 382.685 136.957 382.271 136.448C381.858 135.934 381.651 135.243 381.651 134.375ZM389.336 133.297C389.336 132.12 389.658 131.175 390.304 130.461C390.949 129.747 391.765 129.39 392.752 129.39C393.734 129.39 394.545 129.747 395.186 130.461C395.827 131.175 396.147 132.12 396.147 133.297V133.843H391.177C391.204 134.411 391.358 134.848 391.64 135.152C391.927 135.452 392.318 135.602 392.813 135.602C393.036 135.602 393.243 135.57 393.434 135.507C393.629 135.439 393.802 135.341 393.952 135.214C394.102 135.082 394.222 134.961 394.313 134.852C394.409 134.743 394.513 134.607 394.627 134.443L395.895 135.561C395.14 136.661 394.122 137.211 392.84 137.211C391.808 137.211 390.965 136.857 390.311 136.148C389.661 135.434 389.336 134.484 389.336 133.297ZM391.177 132.486H394.388C394.347 132.013 394.184 131.645 393.897 131.381C393.615 131.113 393.233 130.979 392.752 130.979C392.306 130.979 391.94 131.125 391.654 131.416C391.372 131.702 391.213 132.059 391.177 132.486ZM400.191 129.602H402.039L403.948 134.613H403.975L405.891 129.602H407.732L403.477 140.143H401.67L403.15 136.639L400.191 129.602ZM408.155 133.297C408.155 132.802 408.216 132.343 408.339 131.92C408.462 131.497 408.63 131.134 408.844 130.829C409.057 130.52 409.31 130.256 409.6 130.038C409.891 129.82 410.207 129.659 410.548 129.554C410.894 129.445 411.251 129.39 411.619 129.39C412.082 129.39 412.521 129.477 412.935 129.65C413.348 129.822 413.714 130.07 414.033 130.393C414.355 130.711 414.61 131.122 414.796 131.627C414.983 132.127 415.076 132.684 415.076 133.297C415.076 133.916 414.987 134.475 414.81 134.975C414.633 135.47 414.387 135.882 414.073 136.209C413.764 136.532 413.398 136.78 412.976 136.952C412.557 137.125 412.105 137.211 411.619 137.211C411.132 137.211 410.678 137.125 410.255 136.952C409.837 136.78 409.471 136.532 409.157 136.209C408.844 135.882 408.598 135.47 408.421 134.975C408.244 134.475 408.155 133.916 408.155 133.297ZM409.941 133.297C409.941 134.038 410.089 134.604 410.385 134.995C410.685 135.382 411.096 135.575 411.619 135.575C412.137 135.575 412.544 135.377 412.839 134.982C413.139 134.586 413.289 134.025 413.289 133.297C413.289 132.575 413.137 132.016 412.832 131.62C412.528 131.22 412.123 131.02 411.619 131.02C411.11 131.02 410.703 131.218 410.398 131.613C410.094 132.004 409.941 132.566 409.941 133.297ZM416.48 134.375V129.602H418.294V134.177C418.294 134.645 418.383 134.977 418.56 135.173C418.737 135.368 419.022 135.466 419.412 135.466C419.849 135.466 420.201 135.354 420.469 135.132C420.742 134.904 420.878 134.541 420.878 134.041V129.602H422.692V137H420.967V136.291H420.933C420.76 136.518 420.513 136.73 420.19 136.925C419.872 137.116 419.478 137.211 419.01 137.211C418.151 137.211 417.515 136.957 417.101 136.448C416.687 135.934 416.48 135.243 416.48 134.375ZM424.792 131.081V130.127C425.097 130.077 425.286 129.99 425.358 129.868C425.436 129.74 425.474 129.52 425.474 129.206H424.792V127.222H426.872V128.981C426.872 129.586 426.704 130.075 426.367 130.447C426.036 130.82 425.511 131.031 424.792 131.081ZM428.959 137V129.602H430.677V130.379H430.704C430.845 130.102 431.054 129.879 431.331 129.711C431.609 129.543 431.909 129.459 432.231 129.459C432.454 129.459 432.677 129.506 432.9 129.602L432.62 131.361C432.397 131.284 432.206 131.245 432.047 131.245C431.202 131.245 430.779 131.809 430.779 132.936V137H428.959ZM433.602 133.297C433.602 132.12 433.925 131.175 434.57 130.461C435.216 129.747 436.032 129.39 437.018 129.39C438 129.39 438.811 129.747 439.452 130.461C440.093 131.175 440.414 132.12 440.414 133.297V133.843H435.443C435.47 134.411 435.625 134.848 435.907 135.152C436.193 135.452 436.584 135.602 437.079 135.602C437.302 135.602 437.509 135.57 437.7 135.507C437.895 135.439 438.068 135.341 438.218 135.214C438.368 135.082 438.489 134.961 438.58 134.852C438.675 134.743 438.78 134.607 438.893 134.443L440.162 135.561C439.407 136.661 438.389 137.211 437.107 137.211C436.075 137.211 435.232 136.857 434.577 136.148C433.927 135.434 433.602 134.484 433.602 133.297ZM435.443 132.486H438.655C438.614 132.013 438.45 131.645 438.164 131.381C437.882 131.113 437.5 130.979 437.018 130.979C436.573 130.979 436.207 131.125 435.92 131.416C435.638 131.702 435.479 132.059 435.443 132.486ZM314.338 155V147.602H316.056V148.379H316.083C316.224 148.102 316.433 147.879 316.71 147.711C316.988 147.543 317.288 147.459 317.61 147.459C317.833 147.459 318.056 147.506 318.279 147.602L317.999 149.361C317.776 149.284 317.585 149.245 317.426 149.245C316.581 149.245 316.158 149.809 316.158 150.936V155H314.338ZM318.981 151.297C318.981 150.12 319.304 149.175 319.949 148.461C320.595 147.747 321.411 147.39 322.397 147.39C323.379 147.39 324.19 147.747 324.831 148.461C325.472 149.175 325.793 150.12 325.793 151.297V151.843H320.822C320.849 152.411 321.004 152.848 321.286 153.152C321.572 153.452 321.963 153.602 322.459 153.602C322.681 153.602 322.888 153.57 323.079 153.507C323.274 153.439 323.447 153.341 323.597 153.214C323.747 153.082 323.868 152.961 323.959 152.852C324.054 152.743 324.159 152.607 324.272 152.443L325.541 153.561C324.786 154.661 323.768 155.211 322.486 155.211C321.454 155.211 320.611 154.857 319.956 154.148C319.306 153.434 318.981 152.484 318.981 151.297ZM320.822 150.486H324.034C323.993 150.013 323.829 149.645 323.543 149.381C323.261 149.113 322.879 148.979 322.397 148.979C321.952 148.979 321.586 149.125 321.299 149.416C321.018 149.702 320.858 150.059 320.822 150.486ZM326.768 153.016C326.768 152.366 326.957 151.875 327.334 151.543C327.716 151.211 328.363 150.934 329.277 150.711C329.864 150.566 330.291 150.443 330.559 150.343C330.832 150.243 331.005 150.152 331.077 150.07C331.155 149.984 331.193 149.863 331.193 149.709C331.193 149.481 331.086 149.295 330.873 149.15C330.664 149 330.352 148.925 329.939 148.925C329.675 148.925 329.448 148.959 329.257 149.027C329.07 149.095 328.918 149.195 328.8 149.327C328.686 149.459 328.6 149.584 328.541 149.702C328.482 149.816 328.425 149.961 328.37 150.138L326.863 149.511C327.041 148.893 327.384 148.386 327.893 147.99C328.402 147.59 329.073 147.39 329.904 147.39C330.336 147.39 330.732 147.445 331.091 147.554C331.455 147.663 331.78 147.829 332.066 148.052C332.357 148.275 332.584 148.579 332.748 148.966C332.911 149.347 332.993 149.795 332.993 150.309V155H331.473V154.291H331.445C331.432 154.314 331.409 154.348 331.377 154.393C331.35 154.434 331.28 154.507 331.166 154.611C331.052 154.716 330.925 154.809 330.784 154.891C330.648 154.973 330.457 155.045 330.211 155.109C329.97 155.177 329.711 155.211 329.434 155.211C328.975 155.211 328.568 155.15 328.213 155.027C327.863 154.905 327.584 154.739 327.375 154.53C327.17 154.32 327.018 154.089 326.918 153.834C326.818 153.579 326.768 153.307 326.768 153.016ZM328.513 152.893C328.513 153.393 328.875 153.643 329.598 153.643C330.152 153.643 330.566 153.539 330.839 153.329C331.111 153.12 331.248 152.863 331.248 152.559V151.27H331.22C331.18 151.347 331.139 151.407 331.098 151.447C331.057 151.488 330.916 151.559 330.675 151.659C330.434 151.754 330.091 151.859 329.645 151.973C329.4 152.032 329.195 152.1 329.032 152.177C328.873 152.25 328.757 152.329 328.684 152.416C328.616 152.502 328.57 152.582 328.548 152.654C328.525 152.723 328.513 152.802 328.513 152.893ZM334.807 155V144.806H336.696V155H334.807ZM338.653 155V144.806H340.541V155H338.653ZM341.592 147.602H343.439L345.349 152.613H345.376L347.292 147.602H349.133L344.878 158.143H343.071L344.551 154.639L341.592 147.602ZM353.183 151.297C353.183 150.688 353.276 150.132 353.463 149.627C353.654 149.122 353.904 148.711 354.213 148.393C354.526 148.07 354.881 147.822 355.277 147.65C355.672 147.477 356.081 147.39 356.504 147.39C357.349 147.39 358.002 147.697 358.461 148.311H358.488V147.602H360.22V155C360.22 156.082 359.904 156.911 359.272 157.489C358.645 158.066 357.833 158.355 356.838 158.355C356.061 158.355 355.406 158.187 354.874 157.85C354.347 157.514 353.961 157.066 353.715 156.507L355.065 155.573C355.283 155.986 355.527 156.289 355.795 156.48C356.063 156.675 356.411 156.773 356.838 156.773C357.311 156.773 357.69 156.648 357.977 156.398C358.263 156.152 358.406 155.761 358.406 155.225V154.291H358.379C358.238 154.541 357.995 154.757 357.649 154.939C357.308 155.12 356.936 155.211 356.531 155.211C356.072 155.211 355.64 155.125 355.236 154.952C354.836 154.78 354.481 154.532 354.172 154.209C353.867 153.886 353.626 153.475 353.449 152.975C353.272 152.47 353.183 151.911 353.183 151.297ZM354.997 151.297C354.997 152.029 355.165 152.593 355.502 152.989C355.838 153.379 356.274 153.575 356.811 153.575C357.293 153.575 357.679 153.429 357.97 153.139C358.261 152.843 358.406 152.482 358.406 152.054V150.534C358.406 150.111 358.259 149.754 357.963 149.463C357.672 149.168 357.288 149.02 356.811 149.02C356.274 149.02 355.838 149.216 355.502 149.606C355.165 149.997 354.997 150.561 354.997 151.297ZM361.611 151.297C361.611 150.802 361.672 150.343 361.795 149.92C361.918 149.497 362.086 149.134 362.3 148.829C362.513 148.52 362.766 148.256 363.057 148.038C363.347 147.82 363.663 147.659 364.004 147.554C364.35 147.445 364.707 147.39 365.075 147.39C365.539 147.39 365.977 147.477 366.391 147.65C366.805 147.822 367.17 148.07 367.489 148.393C367.811 148.711 368.066 149.122 368.252 149.627C368.439 150.127 368.532 150.684 368.532 151.297C368.532 151.916 368.443 152.475 368.266 152.975C368.089 153.47 367.843 153.882 367.53 154.209C367.22 154.532 366.855 154.78 366.432 154.952C366.014 155.125 365.561 155.211 365.075 155.211C364.588 155.211 364.134 155.125 363.711 154.952C363.293 154.78 362.927 154.532 362.613 154.209C362.3 153.882 362.054 153.47 361.877 152.975C361.7 152.475 361.611 151.916 361.611 151.297ZM363.397 151.297C363.397 152.038 363.545 152.604 363.841 152.995C364.141 153.382 364.552 153.575 365.075 153.575C365.593 153.575 366 153.377 366.295 152.982C366.595 152.586 366.745 152.025 366.745 151.297C366.745 150.575 366.593 150.016 366.289 149.62C365.984 149.22 365.579 149.02 365.075 149.02C364.566 149.02 364.159 149.218 363.854 149.613C363.55 150.004 363.397 150.566 363.397 151.297ZM369.521 151.297C369.521 150.802 369.582 150.343 369.705 149.92C369.827 149.497 369.996 149.134 370.209 148.829C370.423 148.52 370.675 148.256 370.966 148.038C371.257 147.82 371.573 147.659 371.914 147.554C372.259 147.445 372.616 147.39 372.984 147.39C373.448 147.39 373.887 147.477 374.3 147.65C374.714 147.822 375.08 148.07 375.398 148.393C375.721 148.711 375.976 149.122 376.162 149.627C376.348 150.127 376.442 150.684 376.442 151.297C376.442 151.916 376.353 152.475 376.176 152.975C375.998 153.47 375.753 153.882 375.439 154.209C375.13 154.532 374.764 154.78 374.341 154.952C373.923 155.125 373.471 155.211 372.984 155.211C372.498 155.211 372.044 155.125 371.621 154.952C371.203 154.78 370.837 154.532 370.523 154.209C370.209 153.882 369.964 153.47 369.787 152.975C369.609 152.475 369.521 151.916 369.521 151.297ZM371.307 151.297C371.307 152.038 371.455 152.604 371.75 152.995C372.05 153.382 372.462 153.575 372.984 153.575C373.503 153.575 373.91 153.377 374.205 152.982C374.505 152.586 374.655 152.025 374.655 151.297C374.655 150.575 374.503 150.016 374.198 149.62C373.894 149.22 373.489 149.02 372.984 149.02C372.475 149.02 372.069 149.218 371.764 149.613C371.459 150.004 371.307 150.566 371.307 151.297ZM377.43 151.297C377.43 150.688 377.521 150.132 377.703 149.627C377.885 149.122 378.126 148.711 378.426 148.393C378.73 148.07 379.069 147.822 379.442 147.65C379.819 147.477 380.21 147.39 380.615 147.39C380.865 147.39 381.099 147.422 381.317 147.486C381.535 147.55 381.712 147.627 381.849 147.718C381.985 147.809 382.103 147.9 382.203 147.99C382.303 148.077 382.376 148.152 382.421 148.215L382.483 148.311H382.51V144.806H384.324V155H382.626V154.291H382.592C382.574 154.314 382.549 154.348 382.517 154.393C382.485 154.434 382.41 154.507 382.292 154.611C382.178 154.716 382.053 154.809 381.917 154.891C381.78 154.973 381.596 155.045 381.365 155.109C381.137 155.177 380.896 155.211 380.642 155.211C379.664 155.211 378.885 154.857 378.303 154.148C377.721 153.434 377.43 152.484 377.43 151.297ZM379.244 151.297C379.244 152.043 379.392 152.609 379.687 152.995C379.983 153.382 380.394 153.575 380.921 153.575C381.412 153.575 381.799 153.42 382.081 153.111C382.367 152.802 382.51 152.423 382.51 151.973V150.616C382.51 150.17 382.367 149.793 382.081 149.484C381.799 149.175 381.412 149.02 380.921 149.02C380.389 149.02 379.976 149.213 379.68 149.6C379.389 149.981 379.244 150.547 379.244 151.297ZM389.281 153.016C389.281 152.366 389.47 151.875 389.847 151.543C390.229 151.211 390.877 150.934 391.79 150.711C392.377 150.566 392.804 150.443 393.072 150.343C393.345 150.243 393.518 150.152 393.59 150.07C393.668 149.984 393.706 149.863 393.706 149.709C393.706 149.481 393.599 149.295 393.386 149.15C393.177 149 392.865 148.925 392.452 148.925C392.188 148.925 391.961 148.959 391.77 149.027C391.583 149.095 391.431 149.195 391.313 149.327C391.199 149.459 391.113 149.584 391.054 149.702C390.995 149.816 390.938 149.961 390.883 150.138L389.376 149.511C389.554 148.893 389.897 148.386 390.406 147.99C390.915 147.59 391.586 147.39 392.418 147.39C392.849 147.39 393.245 147.445 393.604 147.554C393.968 147.663 394.293 147.829 394.579 148.052C394.87 148.275 395.097 148.579 395.261 148.966C395.425 149.347 395.506 149.795 395.506 150.309V155H393.986V154.291H393.959C393.945 154.314 393.922 154.348 393.89 154.393C393.863 154.434 393.793 154.507 393.679 154.611C393.565 154.716 393.438 154.809 393.297 154.891C393.161 154.973 392.97 155.045 392.724 155.109C392.483 155.177 392.224 155.211 391.947 155.211C391.488 155.211 391.081 155.15 390.727 155.027C390.376 154.905 390.097 154.739 389.888 154.53C389.683 154.32 389.531 154.089 389.431 153.834C389.331 153.579 389.281 153.307 389.281 153.016ZM391.027 152.893C391.027 153.393 391.388 153.643 392.111 153.643C392.665 153.643 393.079 153.539 393.352 153.329C393.624 153.12 393.761 152.863 393.761 152.559V151.27H393.734C393.693 151.347 393.652 151.407 393.611 151.447C393.57 151.488 393.429 151.559 393.188 151.659C392.947 151.754 392.604 151.859 392.158 151.973C391.913 152.032 391.708 152.1 391.545 152.177C391.386 152.25 391.27 152.329 391.197 152.416C391.129 152.502 391.083 152.582 391.061 152.654C391.038 152.723 391.027 152.802 391.027 152.893ZM396.556 149.136V147.602H397.743V145.781H399.461V147.602H401.329V149.136H399.488V152.191C399.488 152.586 399.552 152.863 399.679 153.023C399.811 153.177 400.077 153.254 400.477 153.254H401.077V155H400.313C399.8 155 399.373 154.948 399.032 154.843C398.695 154.734 398.429 154.566 398.234 154.339C398.038 154.107 397.9 153.834 397.818 153.52C397.741 153.207 397.702 152.82 397.702 152.361V149.136H396.556ZM406.212 155V147.602H408.032V155H406.212ZM406.212 146.524V144.806H408.032V146.524H406.212ZM409.212 149.136V147.602H410.398V145.781H412.117V147.602H413.985V149.136H412.144V152.191C412.144 152.586 412.207 152.863 412.335 153.023C412.467 153.177 412.732 153.254 413.132 153.254H413.733V155H412.969C412.455 155 412.028 154.948 411.687 154.843C411.351 154.734 411.085 154.566 410.889 154.339C410.694 154.107 410.555 153.834 410.473 153.52C410.396 153.207 410.357 152.82 410.357 152.361V149.136H409.212ZM415.519 149.081V148.127C415.824 148.077 416.012 147.99 416.085 147.868C416.162 147.74 416.201 147.52 416.201 147.206H415.519V145.222H417.599V146.981C417.599 147.586 417.43 148.075 417.094 148.447C416.762 148.82 416.237 149.031 415.519 149.081ZM418.574 149.081V148.127C418.878 148.077 419.069 147.99 419.147 147.868C419.224 147.74 419.262 147.52 419.262 147.206H418.574V145.222H420.66V146.981C420.66 147.581 420.492 148.07 420.156 148.447C419.819 148.82 419.292 149.031 418.574 149.081Z" fill="#161935"/>
</svg>
