<svg width="230" height="200" viewBox="0 0 230 200" fill="none" xmlns="http://www.w3.org/2000/svg">
<path d="M50.2159 61.306C50.0082 59.1067 51.6228 57.1553 53.8221 56.9476L192.304 43.8687C194.504 43.661 196.455 45.2756 196.663 47.4749L204.007 125.235C204.215 127.435 202.6 129.386 200.401 129.594L61.9184 142.673C59.719 142.88 57.7677 141.266 57.56 139.066L50.2159 61.306Z" fill="#FAFAFA"/>
<path fill-rule="evenodd" clip-rule="evenodd" d="M192.681 47.851L54.1982 60.9299L61.5423 138.69L200.025 125.611L192.681 47.851ZM53.8221 56.9476C51.6228 57.1553 50.0082 59.1067 50.2159 61.306L57.56 139.066C57.7677 141.266 59.719 142.88 61.9184 142.673L200.401 129.594C202.6 129.386 204.215 127.435 204.007 125.235L196.663 47.4749C196.455 45.2756 194.504 43.661 192.304 43.8687L53.8221 56.9476Z" fill="#161935"/>
<path d="M46.1022 53.7527C46.3154 51.5539 48.2708 49.9442 50.4696 50.1574L188.919 63.5818C191.118 63.795 192.727 65.7503 192.514 67.9492L184.976 145.691C184.763 147.89 182.808 149.5 180.609 149.286L42.1595 135.862C39.9606 135.649 38.351 133.693 38.5642 131.495L46.1022 53.7527Z" fill="#FAFAFA"/>
<path fill-rule="evenodd" clip-rule="evenodd" d="M188.533 67.5631L50.0836 54.1387L42.5455 131.881L180.995 145.305L188.533 67.5631ZM50.4696 50.1574C48.2708 49.9442 46.3154 51.5539 46.1022 53.7527L38.5642 131.495C38.351 133.693 39.9606 135.649 42.1595 135.862L180.609 149.286C182.808 149.5 184.763 147.89 184.976 145.691L192.514 67.9492C192.727 65.7503 191.118 63.795 188.919 63.5818L50.4696 50.1574Z" fill="#161935"/>
<path d="M25.6211 74.401C25.6211 72.1919 27.412 70.401 29.6211 70.401H168.72C170.929 70.401 172.72 72.1919 172.72 74.401V152.507C172.72 154.717 170.929 156.507 168.72 156.507H29.6211C27.412 156.507 25.6211 154.717 25.6211 152.507V74.401Z" fill="#FAFAFA"/>
<path fill-rule="evenodd" clip-rule="evenodd" d="M168.72 74.401H29.6211L29.6211 152.507H168.72V74.401ZM29.6211 70.401C27.412 70.401 25.6211 72.1919 25.6211 74.401V152.507C25.6211 154.717 27.412 156.507 29.6211 156.507H168.72C170.929 156.507 172.72 154.717 172.72 152.507V74.401C172.72 72.1919 170.929 70.401 168.72 70.401H29.6211Z" fill="#161935"/>
<path fill-rule="evenodd" clip-rule="evenodd" d="M45.1484 133.187C45.1484 132.082 46.0439 131.187 47.1484 131.187H115.316C116.421 131.187 117.316 132.082 117.316 133.187C117.316 134.292 116.421 135.187 115.316 135.187H47.1484C46.0439 135.187 45.1484 134.292 45.1484 133.187Z" fill="#161935"/>
<path fill-rule="evenodd" clip-rule="evenodd" d="M45.1484 106.279C45.1484 105.174 46.0439 104.279 47.1484 104.279H91.0986C92.2032 104.279 93.0986 105.174 93.0986 106.279C93.0986 107.383 92.2032 108.279 91.0986 108.279H47.1484C46.0439 108.279 45.1484 107.383 45.1484 106.279Z" fill="#161935"/>
<path fill-rule="evenodd" clip-rule="evenodd" d="M95.3789 106.279C95.3789 105.174 96.2743 104.279 97.3789 104.279H112.178C113.283 104.279 114.178 105.174 114.178 106.279C114.178 107.383 113.283 108.279 112.178 108.279H97.3789C96.2743 108.279 95.3789 107.383 95.3789 106.279Z" fill="#161935"/>
<path fill-rule="evenodd" clip-rule="evenodd" d="M45.1484 120.63C45.1484 119.525 46.0439 118.63 47.1484 118.63H65.0873C66.1919 118.63 67.0873 119.525 67.0873 120.63C67.0873 121.734 66.1919 122.63 65.0873 122.63H47.1484C46.0439 122.63 45.1484 121.734 45.1484 120.63ZM73.4021 120.63C73.4021 119.525 74.2975 118.63 75.4021 118.63H123.389C124.493 118.63 125.389 119.525 125.389 120.63C125.389 121.734 124.493 122.63 123.389 122.63H75.4021C74.2975 122.63 73.4021 121.734 73.4021 120.63Z" fill="#161935"/>
</svg>
